<mxfile host="65bd71144e">
    <diagram id="ako5JM72xl7p9Fyam8fy" name="Page-1">
        <mxGraphModel dx="600" dy="291" grid="1" gridSize="10" guides="1" tooltips="1" connect="1" arrows="1" fold="1" page="1" pageScale="1" pageWidth="1100" pageHeight="850" math="0" shadow="0">
            <root>
                <mxCell id="0"/>
                <mxCell id="1" parent="0"/>
                <mxCell id="29" value="" style="group" vertex="1" connectable="0" parent="1">
                    <mxGeometry x="9.995629957248312" y="160" width="485.2943700427517" height="84.55" as="geometry"/>
                </mxCell>
                <mxCell id="4" value="" style="shape=stencil(lVfZcuJADPwav6pmpDmfc/xHqkIW1xJIEbLH369Yl4GRSdt+M6bbo7Ol6eThc/vysenYfZ6Oh5+b3/3radvJY8fc77ebY3/Sp06eOnl4Oxw3P46Hr/3r8Pvj5Yw8P70ffp2/8Gfg1UqVzyx2f4c3nlj+v3ge8Lt+f4svJC2+UHYAn8mn9vuFUgWEZA/gRIEBIVL2DUEixQIJ3JoUlIB8CFRDQ4hKQD4Ea1KK5CMkxPaEHMihNIQxJpc0eIoZEkRaQqYAfPDOkXMNQ3OfE0y1lJZQx+TfJZRKxVlC9N8TciGXLCEDJ5KQZEuowKSQiWtbrtc43GWIH8N4ewRwwmdKMnECeW07SPEBWOTJT3xGteSsy5rnBPCBEls8B2CPjApxIWQYIW34WC0hgeIO3oqYEiIwKRbyE5MQIQsFWWNSURnza5xWVbLdg8N6rZqFedO/y6TwoMgwlWAJqPIKk0z7Ezidyii8C5sn8jg8FvdnouQnRwAJ0P6p0/6ESkl+ogBIxviORUgn1wrxWnwcK3nhaLiM14WzJ1Joq2JmuEUrSDPTM9qpMDOedTq3ZT0z/4O1Z2bBEEptfGY2mEmbzaxI3n4fr2BaDi0cb3iay7b83dgP3wTfzHBHCeTKs51+jgLqFXU2GDwDvKgEWXscGh1CtVo8CGZM5HgFPmU7/LA9uuIYCcX+aquaDQfHU/dAXpMvlY5gv4/KYfV9YhavD9fLy1u/2w13n9v/7WVHXw0XJXn6Bw==);lineShape=1;" vertex="1" parent="29">
                    <mxGeometry x="1.005771123134835" y="8.01458235779116" width="0.08789750084343377" height="3.551196270337137" as="geometry"/>
                </mxCell>
                <mxCell id="5" value="" style="shape=stencil(lZbdUttADIWfxrdnpNX+XlN4D2YIjYc0YUKg5e3R1mOIlkSd3vnv88pHR8c7yc3L9v55MwV6OR0PT5vf88NpO8mPKYR5v90c55MeTXI7yc3j4bj5eTy87h+W8+f7/mQ/+nV462/4s3CNUEKnAr0vV2JCan+v3C3Abt6fAxmlGCAJWnWAhsoGyIKaXSCJAUoEeyUltGyAqis4QG2IFmiMFh1AVbIltYLE14FCyFYlJgLRdSITJNolGtiRKRGq7ZzqQE4jooBtI2oFO4BUkAVK84EMsrrmBhIHKGMjUkV1VIphXCGqW5zO6W1pFggITklaQK4G0CKzs0KuaMkCGSE53lARrZlU6OB8dG+TXUFbGfyBoGFG6V8zykPjCLFcB87c/OkNWoPh8hI6MBbQofJa3UdysGtbX3FZJh36YUg1GJySeqzYkr6i53KrBeXbjFYnBjQa6wBofHozmhCHoVZZHTN1QP4HkDima09Dx0whrm7+BBKyE0yc1rQ+i43ofHRBtW4tDHHaEMYwzrym7cXn1ar2AxKvKXLteWuLSODg1ZNsYgRfUc0TWz831xQcR4GYkZweBxmBBHEmRz0x/Bm0AY6garpBofHfpgdfO47HebdbNizn98cdil5adjdy+wE=);lineShape=1;" vertex="1" parent="29">
                    <mxGeometry x="4.012756371967697" y="9.904305135818252" width="0.19493199536729536" height="0.19552998151972809" as="geometry"/>
                </mxCell>
                <mxCell id="7" value="" style="shape=stencil(lZrZcls3DIafxrcc7st1mr5HZuLUnrpxxnG3ty9YDY91AOk70p1s4RcJYvsB8iF9+vn05cfjQ/Q/399ef3/8+/nr+9ND+uUhxufvT49vz+/y6SF9fkifvr2+Pf729vrn96+nv398mZLz0x+vf81f+OeEi931NlHR/3v6j3cx//+PX0/yL8/fz+RTdGEo+UTy1XktP/+6Kj/cyEo+gHxOrunf9wXki+tFy8P+c3OjannYT5Hthnvko4vm9wPIZ5fjPfLVla7lPch31/T5k3z1bnhtrwry0dq3NJCv6+slH10GfetwcS8vBofzb7Ld/X46+o/I1/15BlGAAMH5tAfIESQG7D0iFJfhSGVLbe8SYbgOK8gZ9X3MxOwiHWp3aR80ckqNANXlPUDyRu8AyC4oQHMRjlX8qO1PSTJHJaW9DuQcXQLPKyYzSu6IFDpV2yF3zF0Sy+pYS1jZ9TIgaKU/0sHl7NWXq22Atn7iMqCubLUA89xgS5J/VX4XU2JC3erFBqiuUwVpK4A3wHCFSkhxaa+0hNQgQNSn1DI6XzJJoInDg/NJuKS9Dq1j2ovVpX1a7bImOJ9EcNh7a49rk5cBUeelnl0DHWZSUZmyugq+FJqOh95dhawhea7stzS8y+B8Ibm0j4ch5ZQAQVeTkbF8jrXhTb64CnYTX92bbTQXKGe4ofbTUYGkq1vwXJ+3b88WKOAWXqckUTjhhsI+EkbC+llXNtnkw4EBFN0Rl4jkpWGVvs3pBgZOkAzqNcDTCptFz90aEpgEzjBxQJxZQrN1DfBgBHGjsj/VLrSVgl82EAyAkrA3wd84pyaTwNpiiteyttWhQ6jNumB06JS1h6b+ffuJy6UqaMoggEbFMGvyPwGgg5TbaFeg+tx1PEwAKC39iOL/EwCWloakGUtTXRAKMoylG9GepgnuBFAPIwFpdaCmJOosIwAqVR8U5BxAJF2qsV0BdGhxmelWQNb0cwLgWFtbifRWwFid2o1K96BZzASAL/XksjEcAsr6+sYQ/bDreaqEFYbVoWPEjWEqaMREJoCiOEPClnWYvDRJCbEYb6u6eAsroRju5DGQNgSgznUII4WKIoAYNGDQlvrytTOqlMD7xlbSzgAZkuv8vWhWIKWrTn1TB1Ja0nfXADR1NYYrK5FcBhTNHUZm76s6uQqAmtBpV8XIxF0pgqqeHsyAoBWaCYiIiUlcQ/UyAqBuSQCadm8U6pq3apqbcCwpANV5C4DIxow402kQD50A5UvMvOeW1Ap1DVGuKm28FU+pay4tpiTyPZsX0/5k2pK4RjYA9lYdD0LHaUt3A/yK4PN4AB2kBEXjrcSwbFUUAGU+W3cnAFawlf0IYLjDBNBU07CTCaAhpeE/g8dvlmEdACyHO1DassQJuIuHznEDBJBlumMb99/IpY8Ahq1PwF39wATQvM50HBMA3mp7mgmAmLZd0wTc1ZeNiHNT2/lNwF295QSA0tK9VmO4ADrM/tisQKRvduAm4mi0NHt8CwA7xLL6vHM70ApJT0IOssacLtk6DVsKzczfEuoQir5HEABRhxBX63lWp8n5gl+k80buXVereiOTTub3O6aAaPyiIC0uhmckbkT1FPcg0w8zYvWLMF6dyarOeGDohKRNJiWYKoM4he7uC88Etx5yAyRslz4uPTdAwOFVjOaOYuAFWczaLaRm07GK39X9sbaC9yySL1Q5bIkvZsIaVW+AgLMoyXmqWNWBrpqqbgRqw1hI5va65jVWvFZK1EVlDTwTzKuWLcC8MecRn7rwLnydm4e+BZEij1f2QZMGqdnUXwnL8Hul80HKME1l5hwgxKfvk4yUYLKDUKu8V1psP+gewWs+mTLeFQnbUyVdKirx+uk56uVBXd3KZUDR7ZJEOY1AqnmbEQZfeptmZj4NoC3VdVu1AQJPToseFHW+VTeHdHBGG9ncnBt7VvscJeP1lX3uciBvntMcyJvnOhnphX0OxPL2uZHIU7Iwz5kyvkaxz6XyyjbXmPPQ50/Jyz73ylia7XMyvnm3z9UyX6V1XTYz3q/O1z/af4iLxKb9M+HTm9j0fhKep8irCWPC52Qir+5jI8bjJXkan9v9BPRPq2/gHsScp0dKYe3lsZJZf9hakhv9jZ9HHsvLh4+3mN+eX15OTznPv9dvN+Vfp3ef6fN/);lineShape=1;fontSize=6;" vertex="1" parent="29">
                    <mxGeometry x="0.1546599806277129" y="22.719140781294744" width="3.8730063468984173" height="3.2246347602951517" as="geometry"/>
                </mxCell>
                <mxCell id="8" value="" style="shape=stencil(lZbdUttADIWfxrdnpNX+XlN4D2YIjYc0YUKg5e3R1mOIlkSd3vnv88pHR8c7yc3L9v55MwV6OR0PT5vf88NpO8mPKYR5v90c55MeTXI7yc3j4bj5eTy87h+W8+f7/mQ/+nV462/4s3CNUEKnAr0vV2JCan+v3C3Abt6fAxmlGCAJWnWAhsoGyIKaXSCJAUoEeyUltGyAqis4QG2IFmiMFh1AVbIltYLE14FCyFYlJgLRdSITJNolGtiRKRGq7ZzqQE4jooBtI2oFO4BUkAVK84EMsrrmBhIHKGMjUkV1VIphXCGqW5zO6W1pFggITklaQK4G0CKzs0KuaMkCGSE53lARrZlU6OB8dG+TXUFbGfyBoGFG6V8zykPjCLFcB87c/OkNWoPh8hI6MBbQofJa3UdysGtbX3FZJh36YUg1GJySeqzYkr6i53KrBeXbjFYnBjQa6wBofHozmhCHoVZZHTN1QP4HkDima09Dx0whrm7+BBKyE0yc1rQ+i43ofHRBtW4tDHHaEMYwzrym7cXn1ar2AxKvKXLteWuLSODg1ZNsYgRfUc0TWz831xQcR4GYkZweBxmBBHEmRz0x/Bm0AY6garpBofHfpgdfO47HebdbNizn98cdil5adjdy+wE=);lineShape=1;fontSize=6;" vertex="1" parent="29">
                    <mxGeometry x="5.798810643103835" y="23.969416872736847" width="0.19493199536729536" height="0.19552998151972809" as="geometry"/>
                </mxCell>
                <mxCell id="9" value="&lt;span style=&quot;font-size: 6px;&quot;&gt;q me push&lt;/span&gt;" style="text;html=1;align=center;verticalAlign=middle;resizable=0;points=[];autosize=1;strokeColor=none;fillColor=none;" vertex="1" parent="29">
                    <mxGeometry x="0.15437004275168809" y="8.010000000000002" width="50" height="30" as="geometry"/>
                </mxCell>
                <mxCell id="10" value="a-&amp;gt;1" style="text;html=1;align=center;verticalAlign=middle;resizable=0;points=[];autosize=1;strokeColor=none;fillColor=none;fontSize=6;" vertex="1" parent="29">
                    <mxGeometry x="37.75437004275169" width="40" height="20" as="geometry"/>
                </mxCell>
                <mxCell id="11" value="a" style="text;html=1;align=center;verticalAlign=middle;resizable=0;points=[];autosize=1;strokeColor=none;fillColor=none;fontSize=6;" vertex="1" parent="29">
                    <mxGeometry x="42.75437004275169" y="13.010000000000002" width="30" height="20" as="geometry"/>
                </mxCell>
                <mxCell id="12" value="" style="shape=stencil(lZ3Zchy5EUW/hq8V2Jfn8fg/JmI0FsOyNKHRePl7A6bRLOatPuh+k8ibVUABSNxc+RJ/+uPzL79/egnujx/fv/39079ef/3x+SX+5SWE16+fP31//TH+9RJ/fok//fbt+6e/ff/259df3/7/+y8TOf/1j2//nE/495tca0fyUyq4/7z9JByu/e8Hf33Df3n9esbXIziDjxnw5UjN4EsEfD5qMPhWAZ+OHj/g4+Fp/OlwxeCzB/x4nMW3Avhg8enwHfD+8NHgaTy1H70bfCN8O2r9gM+HJ3w9ssUnWK9ajugNvsD3qflw3eAb7J8aj/oRXw5H4wlHTgbvHeD9EYPF0/Pd4bPFp/v40o5en8FXu14bfLHrxeMv+Qj2eyI+Hr0ZfCD8ON7e4COcx+LX9N7xGfZD7keOBv9/hXGNr0dzBt9hP+R89I/7oaI+zGltx3d8gP2fh36wz0+wvtkdwRt8hvmmtj73CQ/fM43PJ8+H8ae81NkJD/o5xXW8H8TfrocH8X6pyxMe9G1yRyoGT/dR7Eey8y0wntiO7Ay+gr6Nt+U84Wk8ct4HHtYrDnUs44H9HNNS3+/4BuclxqPY9UV8eBLvnxyP0/1M92PoR00WD+crtCefPz63zJeeX6z+3+DzokcnPOiTgXd2PxC/mvTF6hPSn4MeRXteOuznSQfteDrs5+AX/Trh4bwHuV/a4Wi9hn6oFg/60/e1PCc8nK+Bl/EQP/FtXQ8nPIzfV7uf27pw7uGdnS/xDV/s/dIWIbrGD/3zFD5ZvtEWob6HD0/ho9WfG3yw+23g4bx4ud83z/eWP2++v7P3Ba+vqDeGt3X4HtttzSoHhg+qk5+Al3UTPjb2Yi27hsw2XwyGiI/lzW0Zwtf3kDUTBpzU8voQ7/BIu2zZZO/wTkrB2jhjFzX4NN5y+LGrAx1au2vGqaTn3552w9cjktJfv73h29FAyQbxOQQ0GoPleGP5iOQpPuNmUDwfcsX3o9AlZ+c7WFN4Ch/4Uhd8QiMk2Dt0sFZS+sFy8sGKO6/vx/0zWPpm/B+VYPLoxAn2eA0rhki54jMaLYqvaCQP/Mfzm/oReb7GJ+M358vi4xF4/B8527CaySmg+LpuvXvn3fiIOhrJwXKS4tEIDEu53vBxsfQH8ZlJv+DrRh9afN/hDSf36ASR71njOkEP4jNepbK+9WbF3MFbm7cvq/AOvhjOFtDJEoSTp+VFvIO3nLOuG/PO5W58Pt0tFnoP//H5fbwR5hsXV7jhMzqRxQbvhZ0gdv/0jRNtmUwnPN0v2X7PMX66v6r1mQ886YebC+P8fSgIYfVnT3i/9EXxz3jQP3399kH8oF/GKbAZ0LASsuwIMmMHYYtRBGhI0TLQKcCGVNc30BzSclSdV43mkJcn8iwA23Tapl0EaNJ1XVtnAZp0s9bd5mQOc9/JHPCqdKJbMus6L4czMzkIayOcBeh2jTZENQVInaYL/YX3d7YEfwoQISo2CjAEMn3Waq+QKUBXTltutAeHFK8WjiKjk6PLXkKTUmjg5kxH8XX0xM7iZJ2bQ4AWLubFU24CEd1xwxAwpuIQwM/aZHtHtOWGKWDX4RaSuhcRMB6wIRBAzQzjwV7nHn2uKVwIEP8a5oYdkl8/uRaQKNRgJMR4kl7pjuM+RbSGQxdFqjJph6oy3RytNxbWcS8NARMKHwI46S48bwhQMNDZ4O0QoOj2sLO6FwEK7wUbHpsCRMWijQ9MAZpDWtTrJEDkcNhyRYaEAsWG7HZDqta/NAXgiOZmgwS7r9Qv3kD3Q3EXAnTHTQuzWAHSGkUSE4YAae9hk1pPb0OvRUk29DgEiHYPK9b4mYYAJZ8USeYZApE+a714A3kSS7t4A37WfvGVSKCqA72tEPu1gL8aEqWUiDulNcxJGtZ4TCIAurUmSx0aOxRrtsq4sS99CHQdEk26WJOmcSBsJhrJGyjSVpv1Yk8BStXRUNsQoEl3a9I0DhY2Z5PVGkcjm5cjyp7O6egQ10SnfLgoURAOqDZJsJoCZEynRZzPArD5Wr6aA+UAFhujngK0DpLE0jhKPX6dZOEaLVyzNtAUoIVrNi6/E7gRhQeH9M6/HnxDl1TD3Rv8+oiPCqijjtdhkn+ZNAqo5uOtMR0reh7oDRqw3kxavA67dagXR5RyMHqX85AxKWQI2HAiG69DwETk5qElj1eXA8Qu4t6FwmW844aAvVDYnh4CrVkB4t5DwLJ7zi31zslClBXquvuKZgVw9/WLI0fenPmZZLsSl+435nzefSxgA+Xb7ar6nnLO5nYVxUTG6DwQou/Jq9ab0JmCEZYpEK0Ahei65PmO3UfX6JyDCOTNGZUTRF7yIWAvCHaTDwFLydh/2m/m81lt8NZo8gayy+Z5EC1A2vj6jFIwp0tG/aQTvPvs3qjI758XkCSuednTUsuVMt05JKCucreo6YPX4hBIdC3KxTsFaNJytXfHylXIw+4NQk92AkKAdpMWirUTEBK3WQeliZs3KBHdvUGo7k5AyPRuSELXN+ugBsFma6jJMQWeMmqmABk1YjZNATJqxDCbAqCX1PSbAmQFiXE5BWjhxHyd25HitKLINk5gNcGnAJUHiZE/BcgrIG6EKcAFSzb26pBhqStkE+1XZ8sUoElfaT6iM+ow6o59WOKSmgJcFpVkDujDErfaFICtoY67zRuma1BOHE26VFsaMgU2tVS6l+CIlnyhNUhVThetKIFCk9YQnmMncFi++puAZzezJHt2zx5XJ9kmHpVA1ivLI+lTd/8QoPwgDSh0z3EaCVlMAZqDBEWmANeFFVkHFJDAzm5IEjraTdrb0rbdZ3WSx7MVsPc0Tzp1G/MbApSJl5qkqXj0/6QqNxAXOM9AZ7cCpO5nKFXix0ROUpI5BFzpFCUfifN1U7B5+T2i5kv+QmBTRmdTtiL6dGOXzJmEOWRRVzqhOyeqDZQ5UyBfZDBlekO6yDvDbIcoaoZt0SiZ0EOAQqkziUQEKAY+01REgAIKodkCmF45eV1TbSoeoItkHvZ5XaQLVSSJFwlJlTOYNOWJy3Qvkqoq2kAXaVuVM5g0v4grYy9SzyrupYvktoon7iJ9jotjLxL0KkaoL1IAuZz2IsmwYmrrRRpjxRvoIlGyYrLzRSoml7DOZM8sAuiXvpg0emjFNcMBuS7rvImLyqptos2yBg3VZBUjsXF2h9hXDSOWWcyrjoc52Rq+kxfyWgvLluC8oiCWPacgBKEkGQmD+rkiPt8L9WQr3UtC/s3DeQdvc5Y4NdJLUSd3mfE2pDE9G6QlpMChoWfFW6/epiDCS0EHR9P8kwUdiueCEZnvpiBF8RuNJXguqFE8F+zIfDcFQfL9NwVHsr6bgibFcxa4twRnU5CleC748uu0LvymoMxbhbgpWFM8F8QpngvuvNWfm4I+KYDdFAxKUfamINGvr3fDc8Gjt8XEm4JKxbMBqHguCPXW1Rw4Mdav3XjDF+Zx1koJu/Nr+HrglGxvmesgvxRQcDZVYLZBgP3mrEPKJ5yvs99nkEDSt+I3GZSOCJOz68vxcm+Nk4LZ5GFlyd20CfozpNQ9490ohfRcGyJl+pzJIk0AMme02hYDGc+hNDDg6LW0R9jBu4wdWbkJEvPYtXMEfxrtTJHRt62dL3iltLMGbzPt3LF5vnQG2eL7U3iJiGc0ErRzygYvnVk231+SBjb7QTrL8HbTzjXsLdPOOBmVlHbeyVzELZ19MnJ+7RyUuehYOhNl9GVr56OMrgrtrJTRJtLOTZmLrKUzVEa3g3ae4iRD7Wy1wUvnrMxF7hf6jZ6vnb/4+dpZLGMVl3Yu2+ClKnuDl85rG7x0dsvIgbVzXMY0Ve1MlzHSop3v8i4ikOx5IUe0du4r6ITSzoAF6wu08yCzJO1suMFL58SCBdbamXGDl86PBQO/2dl8Qv6es3PlM+s7O2OKvqLgYbZOKLYZs3RK5ark2TnU6gdMH/DW0cvVthp5T+iEnZ1VbadgshG0c2vCGjjtDJswMVg7z27wQlcThhe0c27C+1078ybcD7Pzr3RS5iSaasePnY6ztaISF5oVa/RyaXSVWrmINnht1kkaOY9JUssDF6R4awYGTqELNpYfUF816aLCuQJNIjUeE73arTH2O5588i1b/e/QB9UkmOVwP8+c32DwmGEoqXAcU2jS5WSLN/rQ8XpJVg7na018NXjsFN+sLc4V6RNfDJ74bZNO6B75gD7f4/nS8XOWk34fj/xfv7/nGjdZ34DVj0//JYAtfvzj/c8O/Pb65cvbXy04/97+mYLxo7c/cRB//i8=);lineShape=1;fontSize=6;" vertex="1" parent="29">
                    <mxGeometry x="52.045392646422" y="19.4655570822941" width="21.230265011941157" height="8.304040225310388" as="geometry"/>
                </mxCell>
                <mxCell id="13" value="" style="shape=stencil(7VrJbhw3FPyauRLcl7Pt/IcBy9EgimTIyvb3KWbAVrPYXYoBH3zwTcurId9e73Eu4d3X+49f7i7efn15fvrt7q/rp5f7S3h/8f76eH/3fH3BT5fw4RLefX56vvv1+emPx0+337987JL9p9+f/uyf8PcN5020HeTtP+MPvv73h19u4g/Xx514MSlO4s4Eey7ukrFhkrcmRCHfTKgk74Q87lMtyVtxn5BMc3wfIR+DiZn1zUJ+uT8+wJ/Lp2DK/PnZOCfkyzDHkK8mC/tka9Ksr7PyQjnyhZw3tghAM8XPgGiCUKFE4+mEYnwQAPiszYBmnIpRBGmaYzoMt5wBwnyCTyarK2XjywwopgmzQuk6W8k300TgFc+BHZypwqy5Gjt7GrHulKeR6POVgtYh5RH6AxCt8UkA8O9Zh+hNEYCYTZ51iNFYBfCmzekWkwy+kE2c61EsJovwDpYLGFK8iFjyka2UnIkK4EyZYyl5kxTAciwBUAUA6VLmooGyY0UVcygqlgEqlpDBsSwnqDoPP7hFB5FxaCSxLVYSnkYVKokBtkmAJyu5YYZjQOC6BIAqlTjBkuNQnpVZEUszAMHXtA61MEBaCXUuMUA1IARfJEAd8XuWD2m2EjJOFbIAv1LVyEOrYwDaR2OAMiuqBvkBAFXI8O+yABTNQCAU0iHJco/aSn0aAJXTaOwtLQCR0zkxc+s6qD69Vu+suyg8XRigcrrUYZNdaKhorZlzGtHqhVmb5QRCxkURSy0wHe5VQ5i1lRFqGyDpE9roBhugSQoKQJ0dl52kcM5uHHhDJNmCcESZoy/rstEqs5OCBiEKU1t4OihUEbHRkC9EdK12dRjkZQMEbVfHtRLhFYRda2XiWrWVajR5BjQvr1QaX6nF4fxjQBjsfwNoLp0zc4fuShGuqY4ytAE2NnFG+tzs6V08HlfXNKjC7oisyrEdOu4AaiAAE6aWAq2zAliegmBX1XgxtoW0OELogDHbkl3zuOQZxapzjiJFknA1uAOFdx1ZfiLvHctb1UW5Y9UiR/s07LFLNzUMLBbt6amSx+TG8oqCImTCIq8cYLnSA6BqnnNcVQFIih96pkowqaTdYUxHO4AaTtzG+3dOVt0KV6JJoG52O1U6MEClWjcrZb+VLBrnJ5ZXmVbYC11eGDUveQPOLRhA4lVA7wo6bzy7oMk8XvNSklWePxETSa2shna7KFX3SUw86zZTn9jfr2mjuiZPJDXpmWcLl/0BKpHdqFN7DVSa+QOAMhEAbKNtJfV9APCCnUtF0+Mw0oZ7ZhiBdTZVkdLgIlHU0+h4tdrJi0qctY1r6tyXn0sLlKm81EdcSe31cuXkb29sDj1Ha6eV4kplIWC9PorwBu0NS59Vc1v1CxGGH9QJicfhurnyGFDYrH2SE9H6yjx27F/WgGVj1Q2txgXLRBgTjBxI7LDJbkZKii5Y5hcYwxR/qQuZB5dWez1YydFkqAtZjTwZpiAzDvMFDSSYbpWVYHXaYyBpm3oNWLpJz3LFCvPBCerFp994PUHx2oU4J/0GFcOyCLQy+EIca47dItCraWF5xYFWXi3Rfu6Ihw4/d8Q//I64v+fRq0wdnvmfw3DUBAsk0S7bTyeiFSlKtRVZrjwN+sNra+SgAMQlNEKTT8W9zs2FLLxBvBOvYqCV2pPkZYsR9P4J1Zv2JF4ve3LhYcxnSX/6KyU9nAYNWDgfSpuyUn/AnvMBlSoJx/VNOj2R6+cDtCx6AnGaVSLl6Xn5daI4a1m8OByePIs90rnoEdQxW9JvB0gGIhrbgcfyjrfoccTJcTpvtOVVXq5i8phod5+vCpLlXVKUnDvxYJLkCiPypJRkpdi+EbIzvlDWLw8MgzEd67rwKb1W5KcCPVFZ7uF6xLO8Y4sjdU7ELYeNmnQsz8BBrtcsB2WQLWMpC1561XG/8LrlfdvXrt4Uxw+v3/D6fH14uH1BbP9//kYY/nT7Nln48C8=);lineShape=1;fontSize=6;" vertex="1" parent="29">
                    <mxGeometry y="38.00491998688055" width="1.904040123352422" height="3.9675663455610892" as="geometry"/>
                </mxCell>
                <mxCell id="14" value="" style="shape=stencil(lZbdUttADIWfxrdnpNX+XlN4D2YIjYc0YUKg5e3R1mOIlkSd3vnv88pHR8c7yc3L9v55MwV6OR0PT5vf88NpO8mPKYR5v90c55MeTXI7yc3j4bj5eTy87h+W8+f7/mQ/+nV462/4s3CNUEKnAr0vV2JCan+v3C3Abt6fAxmlGCAJWnWAhsoGyIKaXSCJAUoEeyUltGyAqis4QG2IFmiMFh1AVbIltYLE14FCyFYlJgLRdSITJNolGtiRKRGq7ZzqQE4jooBtI2oFO4BUkAVK84EMsrrmBhIHKGMjUkV1VIphXCGqW5zO6W1pFggITklaQK4G0CKzs0KuaMkCGSE53lARrZlU6OB8dG+TXUFbGfyBoGFG6V8zykPjCLFcB87c/OkNWoPh8hI6MBbQofJa3UdysGtbX3FZJh36YUg1GJySeqzYkr6i53KrBeXbjFYnBjQa6wBofHozmhCHoVZZHTN1QP4HkDima09Dx0whrm7+BBKyE0yc1rQ+i43ofHRBtW4tDHHaEMYwzrym7cXn1ar2AxKvKXLteWuLSODg1ZNsYgRfUc0TWz831xQcR4GYkZweBxmBBHEmRz0x/Bm0AY6garpBofHfpgdfO47HebdbNizn98cdil5adjdy+wE=);lineShape=1;fontSize=6;" vertex="1" parent="29">
                    <mxGeometry x="5.37364121675833" y="39.97235756086202" width="0.20782006117670332" height="0.20845758360367708" as="geometry"/>
                </mxCell>
                <mxCell id="15" value="" style="shape=stencil(lVrJbh03EPyadyW4NZez4/yHAcuREEUyZGX7+xTxwPGwe6YmumlhDbfqrZq39OnH45fvD7fof7y/vf7+8PfT1/fHW/rlFuPTy+PD29M7frqlz7f06dvr28Nvb69/vny9//79yxg5fvrj9a/xhX/uOO9iGaDo/73/IVXn73/59T7++ellNz64Wtfx3fV0Pj65sn4/Z9fJ98V5v45vTtr5+OJkXY9E1+v5+OZiX8dXV8j3g3e+LYASnUQCCK7lFVBdDgSQ5vcmoOKQ2RXIvKENIK6xPeCQ0groLrE9NOfXPbToMpuhO5EVgGvO5wDwKIQVUF0gPIrRVQXoLnQCyHOLE9C9K2TToJJfqdRxlZ4A6tziDlCZLYBLSS+JkTtFvQecUmMzZFezvodM9gBrD+umm3eBnBLMvaz3UHHThN45Or/uoTRXhQCyiyuXYHGBmHQuLq4mKuI6OVa4FOVkxE8LOQb0eYibV4JJkWMd31NuL7nAAEEbUMYnyLHCzSXluBslnyTnV8+Hu6/ERAGoJjQwaggsTs1QXGWbFu1mAMiEGgAUAwjkpgXUWMmXQA02Q3HNACpxMwgfOWkACyjStD2MPbBjba4kDWgshHYXVxNNPMYBUFfygUuM3sVri4NbSIRLAKhjBb0jAwSXlD0EGh8AaKsj++l4jgFRsxWARNwMAD1oAAuKJbkcDYBwCYCeDIAtKc9//98lwVebTTOLKzK90B7AjhVRVAyAXVxxxRsAoTfSqVA+dKxV0xsAYcfaXGoawHxr6TojyzwLBaCqe0jTpA4B1ZtTStR7I4fU1MjTLRwDNvbvAEKoUZNLQQNYvoREIZoZWJxGWhvVpmWmjceAMoPsDkA3XeYC9gBycbWaiwOAUKM2nd3nrcQ5BhjvjVNi5QAArWuAEGo0m5zkmUwcA4JZEso6Qo125IwZW1FeiNpDoDGuJZORIT6wGSz5PPWtzZAPMa4SLrUtFdlF0USoMSoeBSizWj4GtEm1Xa7BSkuUSLq6z3RJqEf0DIkDTB03ahZCDQBUFEVVxMqBHnX6E3mi25O+aRRqns2QZk21AYR6vr4d4gbIlHwAKK+BcjYRJ9BFW1zk+RIASmdBDc9cZTfVbhAasgDIK1tDmkndGUBlMyG4QuJ0rzrs9hn0zsYrpaVSv9ebtgahyVLv2nV7qjhgfBE13jOidq2leWr+GN/W84k0kmB8V2m96+zCuk4Ot+rpRBrzuo5uNCyMCRRJPRUD7Y5DpGLDOFIFyNzQurGbzM2gay0NgMYBeTVl2E3nNFKiDzadGa+7FkxwrKySGYB1hnZFJBUVhMpWY7wSAq7Wo1LPcPV95Yo8rUm60az81X5rUuMv1q8cUbhyLMozJppDjvFK4KL7PTDMzVWeTqAuwFPTHwBF6jirgdMjUqROl5a8bmHY2YU3/RigaeUmYJFsSUY2xD0zXaVv8WgDJJ5YVK3R4aYT8xVFh5xYqSAGQDTZFBPEkFg0lQZ7vmmZStA+I+TJkapfkHM2tmmrM265+mmCZwCsYQKAcsEjM2d7iDOz2UtujEtBh8LE2xl9k7929QsTV0cqbxQ0lmg347VRtDEDaiafQh3JJDcUPCruZO7ImpFvc+UllWh65z415rOyMJlWAPPFo/BUsTBQrbSZ+kUiTYObqZAkzU+cluerxUmm7T0rAADAqGElBgCEaxKqfhlLYjMYmQQA1jCxQgxOidm0lXokUXpbMQmAzpZkFAPsgUo9RpMYm2ZLMpLbONYPiXpyIeoZ2VAydcZWmBThMrqRPgFg92DFVSm02rbyLQB0SUYglkL7gVaCBoD1lq3ILYWWSlZGHwCm7BuhfgCYKm5aAVdLMs2GASDks+2Mcay8/5HNHmgfKhq/VKiSWUzXVHjzrQSd/oweJO9DRUU+7iqL121WuBnazvDGt/IOi3SdnCBksSgKgKb3lkwcA7Y3OruwSwHV9KE2oz0DqLCLTIDR2zZyAWBFpW0V58qPVXTunSstmka72wBYfJB88OygsWNNWlHK3AkAEKIBEFc5qOb1Hi4eNqjaGzfNUmnZXuns2Mqy+/E4w4Qs5pfG8w8FaNR740xUMxq+0LMHJlnH6eppe2/0qlcDQvbBVKVktEYkpuzdHuoR5TVG+s7eHmXNJRQ5V4+V1iUNjZncw3gOpd5PtSnfHQIOHlx1/srMRNGdNHKMMPUA1sRU7hhnWN4AlXqyGPRVj4qZzBCMDI3ylOU/wTjXzoXlYKR9VGos7gbzShN1FH01mmZLf+N3pzJrMO9Mq1C3Md5prqcEk2MPd0wvrXC2bpnINj7Qe86aqwhhrCGTTIbIe6w4IOW5G/UY3oS3QpVxb15ZbB2js/HKzwt9ZOHNk4lMY5t5O5kTFa78vM2dmsG6H0YyHR1ocl/2+1yPMfwcLpwQ2pzPeN/H70vpdJX6RowXPZ5JjSbrTJtYeTb+Qw/Lr8fjh5+v2L89PT/fH8Hv/69fveNP9xfz6fN/);lineShape=1;fontSize=6;" vertex="1" parent="29">
                    <mxGeometry x="7.880340530008397" y="39.72604111465165" width="19.427098718017497" height="1.008168077304437" as="geometry"/>
                </mxCell>
                <mxCell id="16" value="" style="shape=stencil(lVnZchs3EPwavk7hPp4d5z9cZTlSRZFcsnL9fRphYUk0yFb5bbVCc4A5enqwp/jpx+OX7w+n4H68v73+/vD309f3x1P85RTC08vjw9vTO55O8fMpfvr2+vbw29vrny9fz39//zJWjqc/Xv8av/DPGeetxAEK7t/zC2fe/f/i1/Py56eXq+XZalqWe+v9/nIfrLllfTZf76/HzyW/rG+WxO+Hyuu9mxZvAmLaDhCtCEAKcwMHoFgqAtCtrR71zXoQLi2WVwuIQY/3AQVbWp0a8KYJQDWfV0C0lu4DKjZQV0CyJs5Qk4WyArIlZaFY3wDdC0DfLBSLwkLzFhsDahaAaHnNJWRXFIdueSbCFaCL7G7d0poaoctc6n46cQKisygs9GhxtRDhBuHWjnokQLAgvNTLDNMBiPNUtwF9O0OeFXKbM5wzt+Z3rFZFfg8TBOiSBXrl7Etwkzo1trwmE3ghC2JCIAIBolXlJhx6DURKkgVambx1AFAQYkstWCVAMy/cWpuVlTaysyCyDyxQVtrIYdbUPZ5JZCHL9lMKV1CuMpnKwYwTUJxVcYbcLK/pWqKkvpyYvrFJlXxwYidAl2dIlYu6BpkaSLVMgGJBdcXObRp0q3IJJUwFdMmu2wCwSlgBmu/R+GlLDW8UIHPygT2zINfRNNcz9DRr8DYxJQ4ciEfxEgBUQAB0QTMAEGtckeFtRGQ6HibUIZAbbTuE2tPWUgbdigoCwG8WvN4SyZPerIrIARASA1S6ApA2gFORO8j6AFSpmBA51xhQRboCwNlXZQX5Q4Fdb0lZ2Fr7OLSKQ5498NqtGsBnQMtQccjM90gNpyKdpwK7Tj59aLfXqHZrrQxQxDQCxyPHBzWauLUPE7qCylZBqgeN/HYMyNpC2GhDyb5Ro1sFNV1BvjNAaYHBM1syKXkyvLQVhIzczwIwjQZyK3qGiAOmpEhuRWoIt475dc2+VqXEgv4nIdrSnHPuDbyFJmpvXpRcbFyjFTwjzgAl7Ncz1KPv3QZkni6rl1MNRmoKXGmzA9yWWEhvklggQyXiKmcrhKMXFopncs1gMmFhbGCNQ86SBCAKya04ldLGNfLAC6UZRaRrZXKF0lQ3FWOkphklS4kFjUeskfSwCI1HYjppEQeNR+md3FQT9wazRuMoAqdGaox+Ky9hGlUV17c4QC3LwQzdgLYU5bUARr+wTflFAdK8Krm6R2hqS26Kl+ubig9mRboLadICJhKSZAAEla2QZHRNVuUIPoZLsqAHM8xtJI3HdaewABJo2zWZuvXKhW82MISoLpo2EghOk7FnOeOb7g+RhxpIqCxKFE6kocYHOUBgx3TF7J1Mb+95pqmSi9OUwQcFSDnmeE4MUmbsWWRObMbxaOLl3HDctl+Wq9toN3vMZbm6A90u0rykukOrXL4FqHpxnJvOssgDxxzk5HDhJu9flivZ4jgJtPDyPCZ8IOFZmzrZ7H/yo8qHy/Fw+X7z7en5+fz55/r//L0Hr87fiuLn/wA=);lineShape=1;fontSize=6;" vertex="1" parent="29">
                    <mxGeometry x="25.5729802558467" y="38.59214373910375" width="4.055122924602593" height="4.098715740151777" as="geometry"/>
                </mxCell>
                <mxCell id="18" value="" style="shape=stencil(7Z3ZkiQ3dkS/hq9pQGB/Hkn/QbPpGdJmxKY1OVr+XoCoyMpyRx10melx3rj4rYxAAHfxu+CH9Kfffvrx1y8/XOG33799/duX//z5z7//9EP6lx+u6+dffvry7eff5z/9kP71h/Snv3z99uWv377+45c///Hvv/64kOuf/v3rf6y/8F9/yMVHTEvoCv/9x38Ij1j/9z/82x/wv//8y3v4JfAWEP7+r8dHaAjPAs/jU/BREB7fwa/DXw/1HTw9Ir5quATe4FXDY7R38IwPM+HvF7I8rkjwPgT+f/Ifwd8vZH1Uhod38PZIsO5zi/R38H4v1ffCKy5ke7+Q43HBBt7AO76qwGN4ZNgFE18UP/hx3u/JGB8lE76+X5x43bv6I3xWPK9mff9pY3pcuD6lKr7j+pT3pyTmw97JXfED/36W5ymPjOvp+PEpfH1k3My5Kb7j+uv7tseFeiEPxVfEF/m+8zAyPio+4/fS79sfjf++GIhxW5iP8Fnxh+cpij/sz/f4ZQ8/8/ffvsj3nZelTD9zvpYVw/3j+MLPb/jB6y/463H1z+Erni/Fp4Ox0PVPj8zrmRXfUT/r80x9xc/TFc/7TfTttNQJn1/0+bLsbI/k79f7RH+fvZu2nc9jL4pviB/v9cO07ryeoyue3te8sGnfSf8//dEXPNnrePuATy8voP43n3PiSf/HW9s88fGR2MEeiqf1j7c1f+Iv1G/xPt0veNIn8d69L3j2yZM8f3ok/F5iTye+wXmJqh9SPnjxNSo+4/eqTfGkT6L6e2k68rg+ch4nviJePPlUDxGXnMeJ56BoDMWTv3RZENUeGfTPdUefL3g6L9P6yPp01J/XI3XFN7Bfl/pLaYYXcL6mdbsUT/72dZ/WZxgY7qD2A3xPii/490dR/ID3ndZW8BG/V9IQfOI74i/5+/OL4/Mkw5P+Sbe2f8GTP5PU/8wJ/Zmk+mHiyZ9Jan9zRn8mafA78QnO49N7ecET7ZDu0/rEF+R7strTiS+IF/s48aT/8/31n/iK/kC+g/sXfIP9lm9r8sQ31P/5tuYvePKXsuqHiR+Ml+ef+grx4h9OPL9vlfMyML7Ld7T4gs/4fVtWfMfvJfu5ML+YVb+VgPY339bhBU/+dtb9XyLyJ+URouIpvij3ar/gyb6UO5p74q+bMv0AL/7bxGf8++K/TTx9r3Kfvic+oX848U3xtH+K+nuFadJys21P/NRI+L45Kj7h88h5n/gO56XcX/+JL+j/7/AUXzi+on+4wxN/uMP3T+HbYX/monjiZ4r68xNP/kNRfVv6HQF9hE+KL7h/RD9P/OC/L/t5oL9U1D+ceIoXisYXNaB9LOpP1nA4X+39+9aIiYWi1P/Ek/9TLLMwIwLGD8Xz+ZK8yMQT31iUT6gJ7dGMnoLiyR+oai8mvsP+r+pf1Xx6nqR4so/1Xu0XfOO/L/hyR3Af4YviSd/u8JRqqho/1or8Z1U+Z+KJD3d8w/iu3tbnBd9gPzu+Y3pqh6f9XNXfqAP9yR2e9L/hWzh8X4kHJ570W71X+4mPmF+r6s+0iPF1Vf9/4sn+VvUH2oX2t6o9mniyv1X5qIknfqOq/99mfIrrI/xwe0a4H+G74vl7SbzQ8uF5JP6deF4fx/P6KL588nnKQZ+LfWxPDfYBXuzdxBc8v2K/WsN4pKl9mXiyv03txcQTX9c0fm8d/fmm8Xsbt8X8AK/nfWB+sylfNPHkvz2zpS94yhc05at7QP3fVJ/0gHxIU/6qB4wvHB9Pz2N4Ou87POl/x3N8usOTP9xua/KCJ/3s+IT6eYcn/nCHP6yP4DPGy74+XPezw5M/6fuT9eEOT/p5h+94HhVfMb7w9ax3RcEHeOEHJp74jab8cGc+sN3s+gu+4vNL/U/n+oqu+nziaT905Tcmnviuof5zH+jPD82PTzzx8zFohd8UoAA1WoVU5wqOGJWCmAKU8lgVUfYOld7h0iT2FCCnOyb14jpbmfh0km6BEdBMxqxx9hKgRyqqKKYABUrxeW5fBKjSK1al7pYAPVLVZZ0ClJuL7U51vwpQMtVO2xKgR+qb70DhxhSo9gsoMDThPw4FAkMZpyVAGcCgLt1gitxrskZAn3cVRWQToEeKWvUyAnpp16VaYwpUWKWVV7XNR3nwlWh0AXqkdOdtXgVgL61Uji0r1UIvrt9e+iDQPidg0e4ImC1a4cfn3qFpPeDpF7oSCKdf6Dcf9L0C43Yovl+g2W4lgRQ2uvUg0D/10ikq7XDYfFNAysdPApcS4SeBtFFkB4FqigwFssaCZwGt3Q5I/qSdUSStkYqmBw96KdWdbqV3aJvzQAHkFPDzQB5x6hqSDy5JXRUw9tIU86exsdNk49JQVuRgp3NQt/7gCWTrjxicJ1llLbZbyZuZAsP9JapsuDaq8qJHShoLLBcOTFZOm1/A5HreGPaDQLXvgAJls/kOAu7CocDOxpGjm41iG1zSnS3mGwE5j9w3ioxIvCnQbfNRVjsPpZmXAKXRgtbRrQiF8p7WArQEYLeWuIkUMZN5aelO59KRKSC1hn1wLYUVTy0BWiXb3kuAsp+Wrl4CYNiL7dYVi1J+0gjPk0DfRbskMDR+OAt0+w6YU7Oi85OAKeOTwKVl0meBZh+OwoGajBjmQs6V5/VfIIFs1NW4PaiPBIY/EuUirHjjLLD50pStqUZPDk7n1ptYeRUAJbDSsb41WKD5eSAB095ngebLSqs0dmeatsa4a2Be1Qw8UgvKzRwYrGZ9EgftvdKs9guYSLo2djoQc3ptHCwyii3tnBPKTWQtnju4Di1v7DR5ZK1o+94SoO9g9Q1ngfopJ3HlE92bYYGNR0YCfUc9ssD4nMDYBK8k0I2VXr432OlurPSBDe1REwmH+GHlzew7UOfrSoR5WAZKoKcNXYS5hKw09giYHOtmUA7hca93Mcp3RuwrG+NUC2iN3jarRKqyd62oWwL0pXfR7kGg+y/AI62N4ALw0ut/f4pfGnGz+chfGubdH+jTKeCUF33pce1+ATbfSNrqNgKa3SnQfbfChxt58wuUaZq/4Kx0YgG3QJQHGtZPtJJftEpxk8sK9NLuCXRMJ4xgAQe3aM0HuEwAVWU3b6bymW5qFFeWmdS98d5TtVGZ7FJkQQUoD7T+3lAB4gS6cZWdK9Hn/9bwOLNeykrQLgPAvyAUcM8nC6TfIWO14xQQuqhze+Y0ihqhJJxssqxo/KSAHqCEFQ5LwH6BWvr7ZVuDeyCWQDcB2kuXZo/Xl2FfQ1TlKpNhb6bbI1GK0L2ZzoXU838HewfqdFkC9kikyHoyjuwocNkqoYNlScj10gcXzr80PZL1263tzQLZtAY6ulmd9aU1WJFlO9MUWk7dqmqmIFH+VuLzIlBJazTj+Qp2dWwtEBn2VSXjJote+jlm4MUokn14czpfBNBOW6v8FCBOYFymjDsq43EZ5dXv9uqP3B/ljDv7fNYeusqd6B2s37APXtayIWipgH4KqKrkjsnhrgPzS1PA+aVGq9R0KNuBzJkCzreSURxd2zYO5UhTwJPBpGbG2ORQKOM3hpLMI2DlawxBLcqUoF6z+RNaIhVPLyHViyuO4pdQ+idy5NeNp4jofE8B5Sm4AWsKKHVy3f77R5tJyykuPhDNih0uji1tf4+LtUC16rmEU2yGp/ETkjOjWiFZwrrQqTa00oYbLUYxdjPjZIgpIEz5FKBCsvGcpPYigHrGmt3nbxJDu544qQDl/YeNSxiFqRMv8+L+jLVzqgpgyH7ZAaq8Wy/TlRVHIAybCTM3PEWvU0CGmKwjdYjxswogE+J0KLflDpuLNwUo3/zGvD8FOm7vt3zdiwAGo5Z1WUaJnT5NQHAvS++m+dhQL4GqAhgqdjsPA8dLLH/qMgHyQ7tpvnFyjUV7vxjWD51p/wmK5LqxZOyeLD+12bryW6ti4tKCrcBhM/kjkYHYvjRG1LtlxWjUvtwSoKBmtzcOAr77MFbc7W9ymLYniEjg/RkltdGtyHCg6lsC9tJIGHlN+UADsb6DvfTpjOoU2vMZ9Wfin1Bv4/gSWhl2XCbhmQeP7twfav7UnxbQ/d15fw+lZ77DyolAw1VyNn5wg9Jbd8Gr80Duyc4XuDgVJD3140BtRKv2rNhOszwmc7GodGZ4v0HFtsRNdqqeuBDhcwZnFFaAYQLoridTfZxRWN637NaMRm4YN7j+CwcEWtebsQJj2LijFQXBiRteUMH97GvVTeCi72ATDkbCOpW1c2S3Xhw2VfPvL2SB53FRd52H7E4Bbc26OApqZrMif4e+ISqIch3dYhQeJPjmnL+SLfQO7q5H5qTGJs1OXPly/y1FTe766JuickyCt00TXqFlbeb0BaYrq+mlgA24iwqxVcIg30Z+HCqHF7PhxWr0pYuSLZ2HAEwtVJ3Upe9ghfHLcnMxQjJiGk2WDfrsnUPwa5OXR0oqaq3Naj0mg2KzrTvPbn6rKXwROGRFNIfXcPplt/7MXtm9N823Mv+cyJeBXb1wmr0oYdQLWqCV57dfwGKEbDUefMfBJumXcS+9pYtfBIiHW3lN+wV8h/+fNPsh4/zPNPs/0+wfCHw2za7F/YkTyEmb8NbWoC+dN6uE5yHboAkeJPJWHfR6RGlZ3YpmZI2XnrNHQjVTNhVJWBlWtYGtFyzI7s2mTfC4klWaZvNKsD7CQvzOA9H72KTZD2ZXTdYhYo+2vTvnB3wARsc+qOFaY3CiM23KEk+JfMtpY37Ac00BS8lWbGue8clJtJw2ZuSsYWcFHOwkagFq5DSkl7jydOINTRGZpvAy3cjevRcC8xVum1LjyBNnvJj5sKxeLh2xxHVTkB3ZDfWS74icQPdyh4NAs6bUyAStab7Bg/yXH2y1yUjQ2qjlJcBuqPe+06ys7tldHk7rXuWpG2A7V4ReOuo8pRHYE7AyrEP/fg+bOQo4YWvX7IIjsHbtNAcBb9hBgV1L0EHA+w1QYNfWRH7rtnEKBax190C1tLwZX4Sj2nZDnsiVXqM57ZGIAm67liCK49bwUm9QoBa5qMzJMrvUImf3WB6mHLSgvvehCa+OXT8a/ELdlZKRjavdCNrAQz53Df9kgbwp9Syg6bWDgDXWngVcCZBR9ObgQ0Ontx8fml28wfks4C3UlLXcNmmTFd22gaPArtGcAo5tKztOKN41y6PArh0f7yDYNfwfBHykAArshhagwG4sAgrsOtPpO2xHO6CA03a8+UrazfSDE1d2A2HIlS47dU/hQNkNbsPrPsJuaiBNzAgbo3gdRp34JB8a19I3j0StWWtcizfWgtldA2FsWfFSmrqx03iL0G6oDZHM27E55FVuB/OgwG70z0HAa8SpVTGn3ewsGv2TdnMJ6Ttse0xpa1jS5dAymqOlzANWIuSdv0SFZGsUls/DA62RvGo9IFe5xnl5CzXdgeYlUgGzx2nnL9EU4zX0zNwfKoNJXiIesFAy2SD+JUAXuZXNhyP7kOxqpAMnsMbbORFCj+QD9Jhq2YzoOwpo8MrczGbM4OEXfJDhUUCrGA8CPozx8A4+7pEFNgMljwI6svIg4EMxjwJa1cJ7aTPY8yDgo0OPAqpmDgI+/vQooOzPQcAZrMOyJmuZOApcvr1J4DJW+vAO1+5LgzK+dqMdyG+94qZvinxvv8R+BEx+xbEZ/YPztMeOeqRp10PzcQeucg1+9tof0N5xN3aTylXX8GpnQ2lMucVAS4Dewdug2NeIdVNdRO7PGiL+KRcu2n2EB44s7tI6OOLbe44OY8rTxoWj9Fq0woLB4x6ngBbEcuAX4y54xd5G1Rqdr3Uau9GKlHPZzBdDXt06tA/NDHbtw+ACFataGIdrJaqXa+G1G5elXPkaCs+48rUkSpg0Jq423eIUBFRjcBqGuN5R35AH8DF+9XRNk1/rwX8/KZ6+r+P5WpId/nAtleEP10wJnq9tqVYdyNfC7PCH7+XFU/y+hj98L8PztWmK52t//H35WqEdngrTHc/XIu3wh/1jeCqw8PVhh8iuNetc/GDXuHVO8/i1ctzt49fWHUZkainqxBPpZ/3aja+1qeqRto6+ltX4N9bnVWP9dc0aPo84Wu2kn/UatIr0RtX868TTZA6/tpHbXapdE1fQ2bVrLY/X7jme9a3iT9cGOp71m3hwjafm2DWnLR2+l/gzjQtDi/oDjbtcihZSrFQy8fya+554ojWLMoJr/CtfazwUT1VFRcsDWjxca6zXbMbDteTF/j4NGLXUZuNZhHYt+eEaVcMfrmnd4aktxK49P1wzu8NTNZ7j+ZpcW8/DNbyO52t+izY9Hq4RtmvMD9cU7/CH71sVj5k9w+fD/pdk5uGa6B3+sD6C52kmOzzlt/x90+Gad90PFzYHFI1nK8+sseGM6xpz1A/Si1P5muKiNOG6hh3PyyXni9kp67usPKi0KKn4VhPwET4rnjpHbXZl4SmlWROqpeMMLRttUzraa6v1Kg3jtazNKBNPNJaNJSuNrxQxfEX9v8NjsnaDx8tsDF/Qv7VUVik4rMXxPPzUrkeceLwfaIOnXlHHJ/RvfX247SZr+r7wtd5Z47vC14bbqNfC15Jn9a9WKQk+v6T5SkT9n9U+rsoT/PvSXlnYH8uqbwvT+1lp6ML1qVlLRgpzxFkTfJkH0mTVz283/nyET4pnfSL6PHfke60fNnc8X0n1eebxT3bZ4qqxQbzwk7mhf5K03jJXLmnQ85Ir8s9J66Ymnhj9pN0smf3JpP7zxJP9Sppbzcw3Ji0vzewf2pzmzHOak/IDOXHRitbd5IT77dKS93xxDlPrPiee1t9aQSee4utL8ws5Iv98KT+WI9/hqvFp5qKHS/3bzPHppfows36zUbGJ80eXVuu/3SG4xUf191JH/RlVP0w8XtOr/GpqnGDT75UaxgtRv1equD+tqCVxfiTqeZ940v9R44tUsJEmatXmxF/4/NLjm7iFPWpdUcpof22kUOL4NKg9Sgn5jaDFLBNP+j/oUIB0ob0L2gm4CqUYHxTP7yv8W4rItwS1jykiXxQ0f5G43mKHp17joOfx4jL7oJe4XDyEOWj91NVxRknQzpyLh29YxcvVcPy33W96cb41qH97cXwXtIV+McC4/tKE8MZ4fIAXf3JFTLiewocvjx2fX/yBi/mloJXyy4PC9xW+/c0D+U78hfZ0h79wPys+Hvan48le7PCsTxTPk498/blXbofn/S/4yLMAbf9E5qOC1mNMPPWYBY2PIvPntv9jPz1PVTzxFUHtY2zIhwfNf0W+ksfOe+R6j6D+/8QT/2NNsrFgNXbQcu9YDudd8puR+aWg/m086atLnufkb0j8NfHEtwRtSI8X1l8F9Q/jddg/wrfEiPx80HxT5OZya2KI3KPjTQ8H9WNwyk7ZCMyOyc0NnG2F5C4attwGpQYqMttBq3fL5xwZzqMH5QEz0tpBy0LSwesRry0dNqUkia/Dw4gPGQ9b0uBssQxOCWsbE8AX9Jm/zJegb/46Wyvx9vnyDgsmuBs6aC6EG4+Dplq4izhoJodbgoMSQwy30nZ+GJujz68a1cryQkY1mvyZotpA3gRRKWPeYkf4/Idff/z9pz/+5S8///3vv/3+7evfvrz+/798/fblr9++/uOXPz//028//fjrl/lv/wM=);lineShape=1;fontSize=6;" vertex="1" parent="29">
                    <mxGeometry x="6.429998673565436" y="41.52461203650047" width="24.6579122035643" height="30.26285441495253" as="geometry"/>
                </mxCell>
                <mxCell id="19" value="if q non empty he to waha dekna start karo" style="text;html=1;align=center;verticalAlign=middle;resizable=0;points=[];autosize=1;strokeColor=none;fillColor=none;fontSize=6;" vertex="1" parent="29">
                    <mxGeometry x="25.57437004275169" y="29.99" width="140" height="20" as="geometry"/>
                </mxCell>
                <mxCell id="20" value="q empty he to hash jodo s me" style="text;html=1;align=center;verticalAlign=middle;resizable=0;points=[];autosize=1;strokeColor=none;fillColor=none;fontSize=6;" vertex="1" parent="29">
                    <mxGeometry x="25.57437004275169" y="64.55" width="100" height="20" as="geometry"/>
                </mxCell>
                <mxCell id="21" value="" style="shape=stencil(lVvJch03DPwaXVkkwfXsOP/hKsuRKorlkpXt7wNGxdFjY6Zp3+RnYoYkGo117uTD94dP3+7vov/++vL8+/3fj59fH+7kl7sYH78+3L88vupfd/LxTj58eX65/+3l+c+vn9/+/e3TWDn++uP5r/GEf97kvAt9CEX/79sPvbme/v/l17f1T49fb9YHl2F9daVcr48up3V9cZWsF/P8TNcn1+D5yRWy/+J8WNeLS2R9damu66Pz8Xp9d17W9d4J2X/wrqwCrbnsiUB0ab2hVugJQnIprgLJRbal4goIBNcqEVDIrAK1OxECijCPeAjoOzMRSM6XVUDmO88FFGV5FQguMJx2V9YtleakE6AqslcklexKIAJ5qukQiK6Sa5Xm4oq94ie6zm0hOL8KZIUv2VIS11bw5US3lPRaV03n6EIjAt3l9Q36SyFnGM9b4Z0qVZzuOK+aTsoJ5NC5zP8+BOJ8xLlAcw22pDZNBFRNfX3DUCU5tAKhrPCW4oSQQElOVj1IoiSg2KzrGRS/lQlUtDhRAyIWp+YSV4FhUuwN3cV1S7HNU51TsUd7UHYORNNq8nHVQ8yuk2utcd76IaDoIuBTFkIBofZQVU2rPSgXMj3UjA4xcvBVw96DntkZqhGo02mfCzSX2ipQXCDwrkbTgZuoCvT1loK4Qsi4+UlbhwB3Wc14IHXEgVxri9OCD6foEl8PJq3USaCn64GV8vTzVwcAJajBMqXplYJDnKx2hYpe4Lyd6VidX8ML9Qyngu5QVUZRpN4N3hCnfV8xEm5JOA2XCYEbnNI3yMTAIZBdILBTz9BAoFBWVd8jRoBZs3o3CEDVmpnpZDGm06jvyWGGajcClbxBPX4Dgun0ljTK6EYgkS2pADirzRk0psBrrTyOUfR31EMiZ9BbQiyphTABMWhNM4a90jSkJoMkGTS64e1IQ9wRlgBJBhqAjigDsh/qPtVCAXuNWoNSAESThV6RelugjDwfcOU7IYbhUZV6QggwNH1l+zd+LdL9K8kLBDCUIptg1hMof2nmGNb78S4TK2gmu/XUkEeunGG9J2apub5PsJ7d/6g9BDgvu/9uAhF1COT+dT3gOc0HXCTzx/neARqIwHgBGgBzmrpeoDziOlGYrgcFbyy4N3T7yhEs/VIB9GhC41MVqPCGRB3UEAAWUrrnAuigKodFMzDiIbMKZMhEPHVQQ2AFtiKV1S96w/hUocr8jQqAN1Cu22ga4i/FaubXCnWkwdb8lhKw12FPPyigOScL2OyWNKtl1YXeMGATXkfqJteRvANfhi0VysFDABLt6iIjvYb5miitsTNktIckNG/uxo2nSPM1FQDWSJGmkL2gY1MB4QLVvIFea53MfiPAIjwVsIfe6CGYN2xIAEw0bdGKiouzsnQpsKJVNb0DX0IBVn3upiaZhIYweq3NbIklkr0iCaTEicxkC3uBZOyBbsmkF7tDm2rb7lrPTJQqzqTbO2hk14wBUfCZ2HAH74LZws6AKkbnexPNxoA28PYRBSjNaNpotkSJzIQOO6o8M1FKxj8toOADL7r1DxCE7jxQxlrVzsdlDBJ3XjQja+z8dDYl9w28M6Ziu1gjI83sohmzpV28lLHPsIvIjE3vYr6M/Z5dVKkCEIZu4taMfnoXGZtYYxd755kt3Eb3G6o0JTTPaCabgniihZUhABmKTDd5KQA5UJjl2R9UXPBTM5cuC/rctM1g2b7NTt/Veuh+Vt4WLxjl8vJ2L1hZOTrAVxckwGG80iBYDldPwjARTP2Pls9bx8CKK7gdnaybSg97fsKaaqTNthZnYeem8sHbCyHC+sZbPHD/iQY81UR5mU4M1KOu/l5YEdZnM+2XSqm0dCTrTvFTCq5Xg2SALoJMGvggSfGmlqdczcq7Fb3y6LKxAvLhg2+IkUUWOc4K9m3VnDXzzXBLqJTck6YXcEtt+rir3gLgVN/AiE631MwZWCNPD909CrBO27jWitfKbEEVJ3BLmRpb7gYaedL9VSEfxgUUGhR8CUMRBR+t/NdJn7fwZgJmMGRUJhljBNtboA1MQYZsu0Y7AKPSqZDRNl9PzMewRhMcZm1o6NWM7STqkZXhoXaeuAcx1p8oo+r6jgzMav8tY7WDm756tIoMzCKcZmaXFEC0Yx4xWh5RGttRxFrHaAczJxuM08803Rw6NgzM3LiCqIKZNT4C0wxV8JZcreg448YuCxY8NRShAyrZlIWFDp3VNC/xJs1h0K5i5n4K7/tFLOUpWJmxjVkEuKVG501sfCG8dTaGF0x+WlhEUhGtspl2MKmaJJrbqVMIqyfUtJ81/q3bEc7BGvNgWdhT959NAzYJze3UOUPcn3jgmQUTl8ShMQKM1aazp2jVmAeb1LwrrDuO67Xqqdjg3CjcrYfOnIulY6BXeGNYgQBj2BrvChuGFbSHMXzDthSwlFf4QFI0oaQaLeszjtmA9QyVd/+V5yAnVPJkmh6lEHCJncI7GHirT2IDve+VjUMgUS86PBqMtVUaSgYz9jyGAthwuFFcD5sJejC4HnkggJWLzr20aRf0TLvDpnzUjwnLc2vDzu37lMI5stE43zuz5ygylZ0+I6dzBZgvJDrNLgJWv3Q9cwsBM//OZxICepGbqYlTAX9yAPYCbz4h4QfwJwdgF2Q/meEK8BgrdB6CmRmSzqffztYzAzjbD/OZP/uJ0H69/vH+PdKXx6ent8+Zbv8fv1/Sn96+fZKP/wE=);lineShape=1;fontSize=6;" vertex="1" parent="29">
                    <mxGeometry x="156.7091927136412" y="26.05805309579897" width="8.585755495707456" height="14.00331074664439" as="geometry"/>
                </mxCell>
                <mxCell id="22" value="" style="shape=stencil(lVrZUiQ3EPwaXhW6Ssfzev0fG7GsIYxhg2V9/L1TJtS0UkyOeRtmOpFUR1ZWqW/Spx93X77f3kT/4+X56ffbv+6/vtzdpF9uYrx/vLt9vn/Bp5v0+SZ9+vb0fPvb89PPx6+vf3//Mp4cn/54+nP8h79fcd5VP0DR/zO/8Pm/L359ffzh/vH0eHbdlsejC3b58RBcacvzxbUinj9+ns8HbFDsB+u3ugLMpSQA3SU6gXdZbCmZ6+sKEd90YaLoLC6ABCsoQHORADCDAFicG5iAHFxqAlBcTSvAnFcrdFfXLb1t8l1AQRzkBWBeerpkF9bIsORiEABYfT2DmYtVAKqzNZasuqDO0J1fPW3NVWGl6p2thy6IJS8AwXVKhyBjqSaXVz+U5EwkXEWCrvkMu3lx6FpcXg9d8I1aoc3IOQB15uD7gD4z+AB0Ga3tCOYJgKGbyOkWOUVrlKHRMh8ahi4i+JoxzcDQTQGqi+uhYWgvzNqaszW8a5UZ12DWsAKQoiLjOph0ZT54Jggr9eDqeujmXRCH7tHVwoCuVkgbIEiz9syxBN+bqA/dXCFAkqHREf0bQBFZr66vfkB0VeHpDjd5XqGI8MYKZh8ya3F9ZY3haZFxABB7j+BTh7b58wEwHUt5Wv2UcV6HRlxpBiTQlZUib6k01wQZI7zT6jgwXxMZhwSi0AC3qnxoWxUFeytuBYD8MOqqIoHmEh0aNUlxK6i3MiDpLWWyUpBmBaAYH1pJOJjVFzZr136gfEAFUlUUniatgQrU1ZYCa42q6/RgPgIkHa2H2DkVlGtUuRWUoLa0Z1yd8XsJ0Kg+NFfUlsxlOnTXZzCWP6B71T6Al6gogu6TyunqPK2Q9KHrTJcTe5uqQG3KqQOAEqO21FgkQhsorQEARetIKbVCmepoAkbAKwD8UBggt7S1fQh4rwCJPQ2AYj78TCVrfKNTtK71AWuaZg1SAiNDtMAi5htm0GQc6Qw2299LIpGkdD/U+CUZSkIX8RsFCbRDpR6AJh2HhCwUGpoqASArBQ9CVwUCwbkvIcRG88zGAEjxvSldAGRV3GOja7v6mS8nuyrqGwBjQFF1F2doDEhXrFQYELTnSIdej41MZ9B1F4C6r6DOEFhLD7GszhC5ZQcgqy3FLfi0ShwAWqFrSRa3pO6yBI1Db8FXdQLVDaDmRQCYZ8AVx8Vtha5bdh+2Lel8YGLqUmyMBNr8kD6Won2Kg4sAopkmG7mRohtAynvPw5kR3jrjQmSAnCJ8GJCnADuVoKhmLbaxhmluLS7RlvJsiy5VxbxVdtWBo+7SJAQASWSIzU2dyHb30FMnwSRlZWTxPaYvaoXkUmZA1BpuV4lJDwUiAQ67XQJQ9zo8o9U6WWlIYwUwzjiEo1S6xnQ/5L0y6yHmTw2EKuxDuJJaD3JSPhxHbVaffdT/bRXbHFRfApCn0cipK44h5qmRK7PqXZwMro5DMyolXGcroT+WFahv000vZy2ITZ5jN80ajel+zP9VQdnGcMVmhlwCUI0bdxiayGhoXOLUNxcB2zSnKemwtYrW5QXE7gfTZfeNhU7jn6xYwzMZ49BVT5mJ+WBWdT2w50Mp0g9IUZ6qaRk6GsMtWuX81LZZy5WCUvgWEhmX9JyCBn3IaQloXHbH9YAiMshaImMvxckQbGudbnpIdmoMz3yvYgOKjfZUpNgYZooMKMpMhXsaAIIiV+MGGUVOdRz7WK3pqyMAeMKUdbgmJqZxx6FH5bxCvFZR2A/6wnmf6SKY5J1f58FdvcJkdbvjaHI0OAKBMqjKyt6OFwkOgOlryE07IKmlNI58oVCTbnc9F4iq78tgRB4z63F/PYrmiSuVnIFN6NCou6pAvBHdqe6q8Q+olMabKBBK9MEmiW6oo1QnZZMzKHIqlmATuj+2Ll/xQIWiAao1qbBgEyIyK3KaM94LoC1lGd44Is2lLcgWxbbLqdzllsaO1y3lMnnkfcCWDznKIpcrl6BUZauI/0cVKEU5ok02Q20CYpWOi43pPgZZH2Lktx1CkVT59vMBCFJL42cmATmrBGmRUeXg0TNNBqkzPA/Jg1QZnlVJkFeuW93RN+WeK6fuSjb94mdNufR4pMdNhM47e1dUvVnGy+sMz5pWv8vhmaX1e4Ge00TfAXi+dbv2+IdeUrz6OD68vQ/57f7h4fV1yvPv/P4kvnp99zJ9/hc=);lineShape=1;fontSize=6;" vertex="1" parent="29">
                    <mxGeometry x="156.18312094479813" y="43.13211343094291" width="15.348675988729681" height="11.922607504204159" as="geometry"/>
                </mxCell>
                <mxCell id="23" value="q.top() ki freq 1 he to bas s=s+q.top()" style="text;html=1;align=center;verticalAlign=middle;resizable=0;points=[];autosize=1;strokeColor=none;fillColor=none;fontSize=6;" vertex="1" parent="29">
                    <mxGeometry x="156.7043700427517" y="14.330000000000002" width="120" height="20" as="geometry"/>
                </mxCell>
                <mxCell id="24" value="q.top() ki freq 1 nahi he to q me se elements nikaalte jao&amp;nbsp;" style="text;html=1;align=center;verticalAlign=middle;resizable=0;points=[];autosize=1;strokeColor=none;fillColor=none;fontSize=6;" vertex="1" parent="29">
                    <mxGeometry x="165.29437004275167" y="40.730000000000004" width="170" height="20" as="geometry"/>
                </mxCell>
                <mxCell id="25" value="" style="shape=stencil(lVrLchw3DPwaXVl8Azw7zn+4ynKkiiK5ZOX19wGz4Yhs7vRGN3nNHpIg0ACavEuffjx8+X5/F/2Pt9eXX+//fPz69nCXfrqL8fH54f718c3+ukuf79Knby+v97+8vvz+/PXy7+9f+sj+128vf/Qv/HXBeRdKB0X/9+WHpq7pv7/8fBn/9Pg8jQ9O/TpeXEjn46urdR0fnXjy/eTKOoGK80IA6mJaAclFMkO0GWQBiNIlxeZSXgHJtXgOSNm11ajVPkGMlP2w4QEo1Ko5u7iatQYnZElZXAoLoDTnCwE0J+seSnWNWKmYZ6xWKsX5SgB2Dm0FJJfJpu17YXUNm7ORPdiKwZeKd5n4UhGnugDMDD4TQEPnM0P/t6vr4eBdXTedC423Gl2AJeXxy3VAwgjN9gmyaXO1up60uSNzjSoISEIDyLxfViul4hIBSEDnS9EpcQ3JzscV4F0MBFDHAgYg2q5IABlHgC/FQmlGvStriEbbAzkHjS6vrmHkXInzaUbXMC6sxDW0jP8+ANUpOWmjXoi4YDFI3Ft1W1JywgAWX6trhDjsdgbQlchCoDHdPPJSGwFyuqII44UZ1Whx/X44Yvz0FAruIBFftXNO25YZ7+kRLJNRmXNrGMEyHVskm5aG3G2ARjYtMtzgAGRqJSkjxU6uRzkjD6aeAOygJSJ3h8pn8C5VBAgjSh1WPwDCqbgOhpgAhVVXZTs4MzSbISEVG6CReLP8g86nvODzrm0AZlbLoVCPdQCJB8vSabNSZZVGxaRrB1dZpVFHyE++dKNwKGBWC1oSccWqbNhD4q6x0ZjFtCdWspMOcA6eUrH5EsR0475nfrCuyCpxkq4sfIAorbBn4ZaQMgolYkvpdd1wpiWxcVhck5tNyNJtwGg2mmWZKmExaQfG80IDL3WZkbZgl+HHhGeJrQqMz4S9WsCmxLoUsl9r7HKE8ex8Wx5F47QeYp9WR+kx2ZOtx6r/1f5p8MbZeEH/YZX5Pr7SfGPjwX94B9bXDxEfKGsZIANrZVcIRfQZtvxU+ZIwBILzN2y0+pAZtfAZFKpmGUx5HXCQyHHKgZYuBoC0b+06axUMAJV/spKPnYNgFk/W/rMlKTJRtpNmrqTYW+Q0nOUUADNUHvyKwWMAxu4GkIgAptt0nQkAZSSI64CGUpUBGOEZIG29tjKGaejefUmMYrZmxDYd2ME1zIHdrExu8x79u58c30TbTk6Yf7dN9OBKjwHwqIUzcRs0NAFYsWOAKAigMbq1kX0GHnJ4csKZTEcvPluJsYBiSdjP4aMxWkgB0AHbkljh3PcgCAh8Bt1CjubENmJ+BnBfgvbidlCXfUnsHDYhsxMTo76GDUyPUWalhoVbD9GPApjS83GAYF9oCYKSQN3YONDettcO65IsydEUVLdyW6i22gqegyVq1kgaANzbSgHWhBkANT2lPZUB4CbAyhmaqMvgualgohFXxgLmkozFQ0b2vlX05SsCGi0rM9J942yfsXTgIqONz9jnBb6BuAZ05Ek6bQoGlUis78lQd1N1oR1q+ft4plWronwRR2FzJjBm3C/zuS4XQhjQ3KkR+/hE7Wl9s0DaoX2wCMZAoTq4ZLR/pXWhBNRTlQrzVZFM2+ibzkQ51HY83UDNmygXae1cI1JjvwVlS/Kb/JqpNlJ0Y4l6S24CLu3iKL+nwiio447yTJ/KG4AKi3lUEpMoR6/O6hbIhStgOgSa/yn7VSudIwJYTuu+Cq6R6X2hHFeiE4BVL7JlnO5LLDzr6Ikmb2W3C/0mTBDA3Fv9KJ+mjMOaT92u/7p0yaStNJSpCcByiG45pw1fOdPmQIs8+oczbc7jeHpZqCO43rVRVn11La/AeHoJtnEkv6ZuEWONvwqx8agkeV4YhY3yIq/V/HhBMfk1e1Oh26uNHmo8L4O+EI4K9Cwxy1arsYZNCyqYoVFJUrfHMJFXtBY5EJvxRvS3K9fabNOyPSQx12BLMkKCxJA8bQkl4gOGdJjh7GIBbmtS5Vcjm1aV1GUGqJviwQmp5yqokfjlv2XDBF1qpm+MakCh1FpCRkmW0VENU8rCRTchqfEXQIKqZOFSbKlDcjkAkdJeySgkFa7d9u9tj5JYM1I8EmXhb1vMiFDslUZnyGV76xWpJG6NOCiAtVBJPBWsSoTf3KQtQVsNzs7BKv68nrTw5t94DjZtGZg1kcbVeTVrv+5iL4BQnmtcEd8SXBOqOx2efIy3NohtACuSLrPS8dD3v0vFV8d7VObeNaKT8fj0x/PrOY+h1icgXueRwN51tJPxcfu+EsLz+BSpHwBdPyjCXTkkB7Dp7Dae5QR/5cAiiRk//H0az0rUjz7MvT3e/nh/Bfzt8enp8oh4/n98NWw/XV4cp8//AA==);lineShape=1;fontSize=6;" vertex="1" parent="29">
                    <mxGeometry x="329.7945529922538" y="38.319117563345046" width="11.105545218626414" height="12.543579184844662" as="geometry"/>
                </mxCell>
                <mxCell id="26" value="" style="shape=stencil(7VrLbl03DPwabwW9Ja7T9D8CxKmNunbgJH38fam4ko+G98yNlwWycxyNdfjQcEjpJr37cvfh8+1N9F++Pj/9fvvX/cevdzfpl5sY7x/vbp/vv+pPN+n9TXr36en59rfnp2+PH1/+/fnDWDl++uPpz/EX/n7BeVfTAEX/z/yFz99/8evL8of7x8Py7GrflkeXyfLgXS7b+uq8kPXZ9bit704iWS9O8rY+RJfKOSAWl2UHVBfIDim4uH+ReogCqut1B2QXEnFpcH33UWyuMYB+cdgA+pHeE4DMv7cAyfV+DijRid8B1ZVAAMXV3YbUXWM7dBf2RMreCcmMqpkEgMgB0ZU9NXJ2QtxaM6aGOrqTSNfq0u7W3F1lgO78nhrFu8hsEHRrCU5IHFpwoe2ARAPXoqvwScUFkkttJfMCaGoQG5qmxp5LGntPjmhrxksyI3MZsLy+SMa7TiLd1et7amiyBEJjPczjsgCJ0kxXr+9e0uwqJDV6wTNdCw1cr8jEmo6Z7WBOXG2UyLrMuB4AlXhJ1OsBAUJIQIJrsIOmBgPEeYKPn0TioIDu0UuR7wAkUFdkzmwQAGjs2ScFl/b0ruoGtoPH9NbzwNhbAwcVqLTp6DMAJJ+SQGPp3V3ac0lpphPW6A0rUAncBs1NQ5Wp0fOQd+bTqsdySQEJ6kPnn6SZUxHQmNEKCAhgRDYAHgEsWwcgIuA/8jwFQBVtM1lOvVQRUPknYZ1usxCfEllAQGbJV10zn5R5HMTuwLi1zQJ1BLDka0bNqNE8vaMggGk+BRST3onlkiYCnOlApfo403DiIg+cHpf9AA0S4AUlG5oJxK3KfH73UlmxP61AoJfUKs7eWEU9p/uIakalgyeBk1UNDvVBWBVVGQr1QcmYAcqUIoeiyM6DaP8AAKFNnwL6HoemapwZbbK1cbqXjp/U0tRoZ4C6J58K08R2EMwlFabUBkEiayp0iVuD97MLW4g+ue1sC9lD3blwVQBYrcqUKiyZybkAicp7WedlATJViRpqkAKdNxCaTHHPDeVnz7xkpLECOlNYCUWfsmclXDlEH3xSnwl8RhuQTIPbGH2bDlypKnFyhUItaxBxVuQ67HClp1npvwA8NTRzQHwrVdEd4jwvC1CmqjtrswIAKmXjJnPIsACN5pIeSBgKKKATG7QZTXuk9YQweT9oCHYQOqcYDXV9EyBhxzEAzOiEVVEBTN4roBkAkwID4BHAhOsABAR4kt4D0DAObMA0jLaBY4A8a+ABwHSoAkB8D/Lkkba5xFp2BYB2GDZwAMgZ4S2KAqxb2ZBMAd1EOnCjcQe55tZq0pt1HMNL5gCxnkYB2dgghO5tpA+1/jSZzAliqu9CusqcppweiG7cdAVgjhzrqC8easrGljY6D4Qlpk4nTBeor0+V9qPk2qk2fjugYZ8ljRa5ZqSuFjlKrmJoo1DqUxHZgJjynOefFWqsu4keiDHehB0ivadRsYFeCjS9xxgBAP7ahAmGXmMMxgBaofY4jIaWd6MwqBh7cpUIgmlMIlhTk3AurX5jbGx7xeFoBig4lx7ynmnpivNQjX1i8r4ZGyIdeun5grGaykAmBQZHQJsl9DyMorkHTs/gFRuAZrT1Y1SpAPykwsfMZrzZrrRZ1fS7kRtdsfNra/B8OkbYz3QVyhqafNDk1yvDloR3TbXO2+ezvqyZWxRWUMaFAtiQeG/pUWzUwHsawQvqwuWMkoqYYTzrOEbnZy7YIh8+wj1NyXwOZy/YEp+HVnMNGekVXl9XUYfpPTX65zD+O+DnMP5/MoxvJpfYHfgYxsMOQoWuAqq5L4vsTAtO1fRMs5c2YoaVpdCWxt7uKi+xOcWYrYMNiwt/cAxXOWsMvWSG8YwExDRN49EHK7vmtUMtdNaiAHxa0PggeyntQxXN3EtwRLVOF1ZF7R2HzI75B4WuAlhh76uRPNhAiazNbuEAoDWu4pRZ3cqMVlmLTwsqbY/HXBxsWA9XzoaVoCqv5JKq1G5uggJrXjuWLBUntJ827P36auoyoEyxc1AzrH9oRsKVRiflqlKBjJU1WFFsHqcOqmaYDZqbuEOcs5TLgIZeGtzKAGW2eUf2JrlUzShxFHaSGtU04LnQTlHj6uGTMm2axgsQqNORKmOtBtAeJ6E2FDPtT41OyscF9u6llKnR6hN8xhinGy4DAjavsVMbUkUbYqFlN3nz2JPXaf17UFACrw/BvMIKiZ6HkLGKBk+9FDzer7WprS971YRtcsLF5R7FVaC9t5/T5NflzJ/m2wMdUXrUkp5en3qcWnmaPkZS+Sue8RGWs/tlj12bp08Q1yvl1+XckRFN5Y5MuJy9IPA4zePjc49TqmvL3/SG/epy/eH1ufyn+4eHl9f2x//H5/X6q5en+en9vw==);lineShape=1;fontSize=6;" vertex="1" parent="29">
                    <mxGeometry x="328.9831345302098" y="54.48971602848998" width="17.280987575073457" height="11.784231708982134" as="geometry"/>
                </mxCell>
                <mxCell id="27" value="agar koi element bache to q.top ko jod dena s se" style="text;html=1;align=center;verticalAlign=middle;resizable=0;points=[];autosize=1;strokeColor=none;fillColor=none;fontSize=6;" vertex="1" parent="29">
                    <mxGeometry x="335.2943700427517" y="27.77" width="150" height="20" as="geometry"/>
                </mxCell>
                <mxCell id="28" value="agar q empty hua to # chipka dena s me" style="text;html=1;align=center;verticalAlign=middle;resizable=0;points=[];autosize=1;strokeColor=none;fillColor=none;fontSize=6;" vertex="1" parent="29">
                    <mxGeometry x="340.90437004275174" y="54.489999999999995" width="130" height="20" as="geometry"/>
                </mxCell>
                <mxCell id="32" value="" style="group" vertex="1" connectable="0" parent="1">
                    <mxGeometry y="5" width="100" height="75" as="geometry"/>
                </mxCell>
                <mxCell id="2" value="aabccb" style="text;html=1;align=center;verticalAlign=middle;resizable=0;points=[];autosize=1;strokeColor=none;fillColor=none;" vertex="1" parent="32">
                    <mxGeometry width="60" height="30" as="geometry"/>
                </mxCell>
                <mxCell id="3" value="" style="shape=stencil(7VvbjhU3EPyafbV8vzyT5D+QgLAKYdFCbn+fclY+jKvn1MBbpOQNzrrGY7u7urrd85BefX7/+tPbh+g/f3l++uXtH49vvrx/SD88xPj48f3b58cv+NdD+vEhvXr39Pz25+en3z6+efn/p9dz5PzXr0+/zyf8+YJr3uU8UdH/9fKLdyX+88NPL+M/PH48jK/D9baND+uHe+PD2MYnV4MY313bxxfn1fO7S2UbX92oYnzj5+MFsxyfwr7e4MoQgOr6/kIh6x2tLu5vFJobaobiut8AOIOq9qjwHmFTsxeAzJs0d6lIQOj7Kce1DeeA5ErdAVVva3QjboDsXUwSQNuaYXkKEFzbLTtXV9UaAi86D1fUOfj155ttx3Uy9wB+36UCbxCAMlzdTaPA3sWiAaBdwpxJA3zaAVESQOlsrTDHKBgAgLJv6/RB4dIAZAJgVfqViPNaWKu6C9gX3aI86QnYT7olNy4WTa9UXNCAuvNSA48In56AfZdac1HZEph497gGru0aQLt0M8dvnKF7Ny7WsFtrj1drqLsD9SSp0tpSL8vL7wHizq29rlXdA5ADdTxCAZrru2n0i21tbEvDuy64FQC/L3pE59UM1eXAABWyQFvkDyO5rsw7M/ONvOY8BwSODwAoFwVXkwMBEATN5LZC4GENishyZjIe0EpqBqyBdslLIksgYzKNG1OdAwqLE1ir8mmEcWK+jl0SM0QTH3qQPg0pUon5hmvCpyNiJnGrjnHhFg0O3KqML4BJ6ZXA3kIkhsQCC/HBi20NnrUGdHgSM+BYd3eYOlnJXN4jxNAoHBS+YoL0EKRk1NiUjGpLOfhAACqWxP5kHu/F8/1KEg6qRDmCX/x2GJ/08814FRY8MyrGK+HmVwi4jQ/S4jwTMMYrve05Dn5Vu3fGj2zGKx9jj5njpT2U9H3P72a9Tex/5PBxsT+Ro/jcfzk+kWy+zXjPv2g8Yod4/7pC0cG/svBfZIxkb2XFknsExLofJCpoGhQXyAOGZCCQ6AknKsDgM246cY6JEwUEAi82CbsUCTCk1SW/RPtRbwqzTtmlfZd6lmltaivbOgTkLhaNkD9I0XbpaTlylgpRoagOsiUY2aI0cy5G58QlWc8Bla0VSkoZX+5GemFblRr0fNKjaM0c2ZZGXbrknqLlbW0rxt3TzJUEatd5sMnlR5czgFKCnUFXbfgcmi7OVS7+zV1SNZW+BO/hHFTFAzKIkp2ZKAh/mIk4AeKqOJ4DkFnQLnlpGjMRN/mXSs0BYBdtS86cAypLYJCAYj7wHIUfZKlK7iBzp0WDl7IgYwAyzXBj23OATUWi5KVm8q+uQ3T3qwp0AHixS/gzBVE8IiqRHZlm8JJZLBoAcqB2K1+fAzLryHkygltxriQMmy6GdVNNbroeAdtMnQFB+MOsPlDukmVai/Ax6JWSLKyChQIVkoK0VgBIXgGgqpggxhAYENUMppA0AeLgBjiimVdSM4yTNagYB0DvDJCa25sspmmViykoDWg67QGgBQaomwYAkplBlW1wEN3IShUVAUjmlZRDwJg4N7+YwcrKizXUVRH51l2qxuV0kJsAY9/ypKup3YarXfJmBhWzAMiRAdIhkNOYV5IuZ2q3V049TtaQ1BqGKeuDmLQDdeNxSlZOjzNrUNcrJ4Ao6XvYNCtqrhxmW6M+6e8G2PJZkaVYRBRPgCrX0I0ORRgtCtCMP3TJfAjUHCCGLFhDT9EdK9SJSqin2DD6R9UEZq5KyajOXrupyuAl1b1Yv90rHABKCkwBRmvIctHN2BI2WqXsOCarpaX4bpzT4OxVB8EsMuxEBkWkiKwVczXhZXG13ZLbQ05TVNYUOSgiP1ZUiTRrmLxM3U/WYbImrUNnqkh5Wde5ZV7UewPc2PYcEEx+PFbEOE+o+wqBC3BQRPdydk4udcGomDofAPJWNnFyObdJzRD4zhQA2RLgubQ/I7G+GCPBBHHQBfXlthoxDsYkS1LV1E6yvD7MJgsaWbJxTsblkrxkzZFbM+YVqNolzzwDp1Y1rNRZ/1yUEVJhHQpiksXHuO7NDlypzDsOk1FHaXzzrs7ELNU9FYNRJzruBlPpAxkqNg55pZLfKDZCMPmAl6bRlzS/Fb671N6Fa8agQuVvxlRrkXXyyCXmmiTtBVYBs06or67+bVdp5n3+v0o7jv9vXaUZlqtRViYTiynYv8oVMncmflUm5zrENMQVSXGNNfOUSiqX56aQ2fKqmhFM4yPEm5KboFAuqQRZnws2OUoyE4m23aFI9YhDo02azWrCybCr1Gbchmx4SH5FumM2JRadMl/pz1YysYbUlmY/hGOpozx7Zm/SMnIygCErVRBerAWD7nkaTNZDk3vxJ8LLq3u0yKWtoW0JEpvvAqNu6ctsSyPo3rOyDOEo7XR3WzfSrqhF15O+raDWUJfyO2S1F7eNfK9cZAf3bOmjYsFFp2Q9EY+yF7Nyqfeq27NyRnjVT2oWfdWxatqkrnpiq+kcvui6vV3kHUtbyviquQa46ByuZwJYHxwXky+6nysX9Wd/tWrIrqblu+mmclNSqRddt43rSLMLXc/AKsDL+DC7bndbwi8XncMUdotOam1jPLgwqkUPziDn9waqpGKkdr74yMKztSLEyC8aApMxgpgisq9acwHmdx/6Mw7ipfllifp2JXFRf367ogEk+KIWJ9CDPENYvR33AHSZHppM2WYGuNMMNJqshRUukwZ9GzPbw6h8IUX3zGHJ4aSWmZp2H3/rNTkf3zjrSfLmHeP5KytZfYFmppju9Rl39gQvKQ/jKz9f+kFnyeBl61o1bdVeyqpqep697J+tg/lRV0br4CzMy16Maq6pvLS35vn63Mu289k+bc5LdZ945lLdFDfHVxqvbne+97PK6/H4x9dvON89fvjw8gno8e/8zSd+evleNP34Nw==);lineShape=1;" vertex="1" parent="32">
                    <mxGeometry x="10.827968942703492" y="0.7057175962488955" width="4.370042487683018" height="10.143662944899276" as="geometry"/>
                </mxCell>
                <mxCell id="30" value="a-&amp;gt;1&lt;br&gt;q:a" style="text;html=1;align=center;verticalAlign=middle;resizable=0;points=[];autosize=1;strokeColor=none;fillColor=none;fontSize=6;" vertex="1" parent="32">
                    <mxGeometry y="25" width="40" height="30" as="geometry"/>
                </mxCell>
                <mxCell id="31" value="q.front() wale ka freq=1 he to &lt;br&gt;jod do isko str me" style="text;html=1;align=center;verticalAlign=middle;resizable=0;points=[];autosize=1;strokeColor=none;fillColor=none;fontSize=6;" vertex="1" parent="32">
                    <mxGeometry y="45" width="100" height="30" as="geometry"/>
                </mxCell>
                <mxCell id="33" value="" style="group" vertex="1" connectable="0" parent="1">
                    <mxGeometry x="110" width="100" height="90" as="geometry"/>
                </mxCell>
                <mxCell id="34" value="aabccb" style="text;html=1;align=center;verticalAlign=middle;resizable=0;points=[];autosize=1;strokeColor=none;fillColor=none;" vertex="1" parent="33">
                    <mxGeometry width="60" height="30" as="geometry"/>
                </mxCell>
                <mxCell id="35" value="" style="shape=stencil(7VvbjhU3EPyafbV8vzyT5D+QgLAKYdFCbn+fclY+jKvn1MBbpOQNzrrGY7u7urrd85BefX7/+tPbh+g/f3l++uXtH49vvrx/SD88xPj48f3b58cv+NdD+vEhvXr39Pz25+en3z6+efn/p9dz5PzXr0+/zyf8+YJr3uU8UdH/9fKLdyX+88NPL+M/PH48jK/D9baND+uHe+PD2MYnV4MY313bxxfn1fO7S2UbX92oYnzj5+MFsxyfwr7e4MoQgOr6/kIh6x2tLu5vFJobaobiut8AOIOq9qjwHmFTsxeAzJs0d6lIQOj7Kce1DeeA5ErdAVVva3QjboDsXUwSQNuaYXkKEFzbLTtXV9UaAi86D1fUOfj155ttx3Uy9wB+36UCbxCAMlzdTaPA3sWiAaBdwpxJA3zaAVESQOlsrTDHKBgAgLJv6/RB4dIAZAJgVfqViPNaWKu6C9gX3aI86QnYT7olNy4WTa9UXNCAuvNSA48In56AfZdac1HZEph497gGru0aQLt0M8dvnKF7Ny7WsFtrj1drqLsD9SSp0tpSL8vL7wHizq29rlXdA5ADdTxCAZrru2n0i21tbEvDuy64FQC/L3pE59UM1eXAABWyQFvkDyO5rsw7M/ONvOY8BwSODwAoFwVXkwMBEATN5LZC4GENishyZjIe0EpqBqyBdslLIksgYzKNG1OdAwqLE1ir8mmEcWK+jl0SM0QTH3qQPg0pUon5hmvCpyNiJnGrjnHhFg0O3KqML4BJ6ZXA3kIkhsQCC/HBi20NnrUGdHgSM+BYd3eYOlnJXN4jxNAoHBS+YoL0EKRk1NiUjGpLOfhAACqWxP5kHu/F8/1KEg6qRDmCX/x2GJ/08814FRY8MyrGK+HmVwi4jQ/S4jwTMMYrve05Dn5Vu3fGj2zGKx9jj5njpT2U9H3P72a9Tex/5PBxsT+Ro/jcfzk+kWy+zXjPv2g8Yod4/7pC0cG/svBfZIxkb2XFknsExLofJCpoGhQXyAOGZCCQ6AknKsDgM246cY6JEwUEAi82CbsUCTCk1SW/RPtRbwqzTtmlfZd6lmltaivbOgTkLhaNkD9I0XbpaTlylgpRoagOsiUY2aI0cy5G58QlWc8Bla0VSkoZX+5GemFblRr0fNKjaM0c2ZZGXbrknqLlbW0rxt3TzJUEatd5sMnlR5czgFKCnUFXbfgcmi7OVS7+zV1SNZW+BO/hHFTFAzKIkp2ZKAh/mIk4AeKqOJ4DkFnQLnlpGjMRN/mXSs0BYBdtS86cAypLYJCAYj7wHIUfZKlK7iBzp0WDl7IgYwAyzXBj23OATUWi5KVm8q+uQ3T3qwp0AHixS/gzBVE8IiqRHZlm8JJZLBoAcqB2K1+fAzLryHkygltxriQMmy6GdVNNbroeAdtMnQFB+MOsPlDukmVai/Ax6JWSLKyChQIVkoK0VgBIXgGgqpggxhAYENUMppA0AeLgBjiimVdSM4yTNagYB0DvDJCa25sspmmViykoDWg67QGgBQaomwYAkplBlW1wEN3IShUVAUjmlZRDwJg4N7+YwcrKizXUVRH51l2qxuV0kJsAY9/ypKup3YarXfJmBhWzAMiRAdIhkNOYV5IuZ2q3V049TtaQ1BqGKeuDmLQDdeNxSlZOjzNrUNcrJ4Ao6XvYNCtqrhxmW6M+6e8G2PJZkaVYRBRPgCrX0I0ORRgtCtCMP3TJfAjUHCCGLFhDT9EdK9SJSqin2DD6R9UEZq5KyajOXrupyuAl1b1Yv90rHABKCkwBRmvIctHN2BI2WqXsOCarpaX4bpzT4OxVB8EsMuxEBkWkiKwVczXhZXG13ZLbQ05TVNYUOSgiP1ZUiTRrmLxM3U/WYbImrUNnqkh5Wde5ZV7UewPc2PYcEEx+PFbEOE+o+wqBC3BQRPdydk4udcGomDofAPJWNnFyObdJzRD4zhQA2RLgubQ/I7G+GCPBBHHQBfXlthoxDsYkS1LV1E6yvD7MJgsaWbJxTsblkrxkzZFbM+YVqNolzzwDp1Y1rNRZ/1yUEVJhHQpiksXHuO7NDlypzDsOk1FHaXzzrs7ELNU9FYNRJzruBlPpAxkqNg55pZLfKDZCMPmAl6bRlzS/Fb671N6Fa8agQuVvxlRrkXXyyCXmmiTtBVYBs06or67+bVdp5n3+v0o7jv9vXaUZlqtRViYTiynYv8oVMncmflUm5zrENMQVSXGNNfOUSiqX56aQ2fKqmhFM4yPEm5KboFAuqQRZnws2OUoyE4m23aFI9YhDo02azWrCybCr1Gbchmx4SH5FumM2JRadMl/pz1YysYbUlmY/hGOpozx7Zm/SMnIygCErVRBerAWD7nkaTNZDk3vxJ8LLq3u0yKWtoW0JEpvvAqNu6ctsSyPo3rOyDOEo7XR3WzfSrqhF15O+raDWUJfyO2S1F7eNfK9cZAf3bOmjYsFFp2Q9EY+yF7Nyqfeq27NyRnjVT2oWfdWxatqkrnpiq+kcvui6vV3kHUtbyviquQa46ByuZwJYHxwXky+6nysX9Wd/tWrIrqblu+mmclNSqRddt43rSLMLXc/AKsDL+DC7bndbwi8XncMUdotOam1jPLgwqkUPziDn9waqpGKkdr74yMKztSLEyC8aApMxgpgisq9acwHmdx/6Mw7ipfllifp2JXFRf367ogEk+KIWJ9CDPENYvR33AHSZHppM2WYGuNMMNJqshRUukwZ9GzPbw6h8IUX3zGHJ4aSWmZp2H3/rNTkf3zjrSfLmHeP5KytZfYFmppju9Rl39gQvKQ/jKz9f+kFnyeBl61o1bdVeyqpqep697J+tg/lRV0br4CzMy16Maq6pvLS35vn63Mu289k+bc5LdZ945lLdFDfHVxqvbne+97PK6/H4x9dvON89fvjw8gno8e/8zSd+evleNP34Nw==);lineShape=1;" vertex="1" parent="33">
                    <mxGeometry x="17.817968942703494" y="-0.004282403751104447" width="4.370042487683018" height="10.143662944899276" as="geometry"/>
                </mxCell>
                <mxCell id="36" value="a-&amp;gt;2&lt;br&gt;q:a a" style="text;html=1;align=center;verticalAlign=middle;resizable=0;points=[];autosize=1;strokeColor=none;fillColor=none;fontSize=6;" vertex="1" parent="33">
                    <mxGeometry y="25" width="40" height="30" as="geometry"/>
                </mxCell>
                <mxCell id="56" value="q.front() wale ka freq=2 he to&lt;br&gt;to pop karte jaao&lt;br&gt;jabtak 1 freq wala na mile" style="text;html=1;align=center;verticalAlign=middle;resizable=0;points=[];autosize=1;strokeColor=none;fillColor=none;fontSize=6;" vertex="1" parent="33">
                    <mxGeometry x="-10" y="50" width="100" height="40" as="geometry"/>
                </mxCell>
                <mxCell id="38" value="" style="shape=stencil(rVjbThwxDP2afbVyj/NM2/9AYimrUkBAb39fp6sMsTM9S6W+LUPOTGwfH18O8erl7vrpeAju5fX58cvxx+nm9e4QPxxCOD3cHZ9Pr/LrED8e4tXt4/Px8/Pjt4eb899P1/1k//X18Xt/w88zzjtHznVYcL/OjxzF+OfBpzPg/vQwAVqj2tT5TJ7h+ZLUee+oYkCOGpAoNwhIWQOYOAMAU/EKECIF9IVKSdsQKjUHAIW8BkRPDXk1Wa/GTDEAQKQUNIDJFwAI5PSVkhtu2AfIv4sGBGrgC8yUtA0pQypxGUTYABV/IVLRgOyIQeBqo2bImoYb9gGFnDY6V4og0lXcqrlUhN4gcKWS1/QuiQIwuvhBtQ1QqYLA5UJZU6N68sCG7MlVDUiDv7sACZPXcRC/FWBDitR0ilaGIiDcNIFjB0Wgs19/gSUyCCDcNAARAaAaUdivjWYJHKC3pHzRgeNMDgGcDZwAkJfCIpWSUgkYHXiQeQPU4YZ9QKZmriSvAJEOgVhzieWS6AvO1gcRngbo7dmqhkhbrAAgbNUpKuLJCJDHjTdAhl7yG3M2QBn83Qd4Yi0zvawio72lhgAY5LQUWUO+DkA1zqa0nG/A5mrrT2vQZPGpDsLUeexnA5W8fAAlA7n1QiDb3PDf7CBgsCO/vL+CTBDrlvsjjdz0bTqfEUupLOdR7gtH03Ie+CfbotDPg3gVq9j9PKA07/g/gaIjjI5+cRBKAT+UagYABvWsXFxUUAg81cWGigBu9Dcz6VDXtvMBRGq2Td6FpCm2al7KyrQoHU77sKNbSFa8vVB3EDDAUVhkq4L7LNNO21z8X877vUqAuoqF1LjvT0MT5loGsiYTG/9LsUQN8KJyDtZKXnocyWKcAVlngDQUASWlMEhTWloWCEhLJ1igEPli+4PedqEY85gWp04QBbnXmmQBqMEWWtj2N8IpWxK5GrcG2GuGTQrnBhu3vyYOvYVH3WweUjgPCYDacRPbaQxBLbyMlyZwMug4oKYyLZoJVUYpJPA5j65sHtaADWWp4vKkABvkfUW38DJwBnClwjaB+kgL6C0Tqin8fWhGnd2mQPNYjjSjDqrNgz8ampdms68WwBc6N5flBRoHeRma3wbEv60WgrahD4iofUn2Sn3FA6jxNstNSyTUkYtsmSHhwppKhNGQ78IirANMU45XbQJI2q0Xlnldq7UY422hnDddM95G9vdHcx4N8XLe7NmkrUflja0muaE5++ebVXoHFan59f4OkEiqd13ejxaRyQ78F84v/cKF+4j/l/cje3mM6u/zp3RbodjzIF69W/SH9/Phn9ff7wDIj7dt++3p/v68rJ//b7fz8ui82Y8ffwM=);lineShape=1;fontSize=6;" vertex="1" parent="1">
                    <mxGeometry x="130.42261105359472" y="47.55425754170897" width="0.14140836808851903" height="2.7964389390357063" as="geometry"/>
                </mxCell>
                <mxCell id="39" value="" style="shape=stencil(7VrLchs3EPwaXqcADJ5nx/kPV1mOVFEsl6y8/j6DsLAiGru94SkX3yRyhot5dw/2oh++P3769nAJ7vvb68uvD38+fX57vOhPlxCevj4+vD692V8X/XjRD19eXh9+eX35/evn6//fPnXJ/tdvL3/0X/jrqqdRkutawf19/cRL1n8/+Pkq//z09VZepaZJPourRD5I1Pn3g6RIFLz4PCsUKf5YITSJZVIIUUIiCkV0foJym+336vwEtWeyJwQJs9GxSMrHCt5+L0wKKUkkbvV5nHgLQ5BWiEIU52eFJjkQBS9pDnSxIxEbmujspOokumP5golXoxRyoCRtNqBWUZJIUfL8+82LssxGe5ulOss7yXMWte2E+w6VBvKFBwBTotWRhrvyTirY28YnB/K5oXwj/nGS5vh658TRB8R0p4LqfScKYbGYRMCJX36fRcBOm1GeZbTJL+fxJEM3b9xGmFSYwxI2+dTuOX+lFbD6p4qn9qL/izSa0egf6yi0wgL4R4cHDiq4zAlXLX+If9KYK5t8FiVNt4qLs3yg+eCdlLlkSpFKAuC3jrMpWJdhXT1Lq3NXLzTlesxgDFhXZKNMRWcFm0xslBkegCfENtywr1CHTzaFOFrfEUJwyzgOHIPA6DDUk4kN9rXOblVHK03T+HrDIJmmnmaJcy7ZvHIMFhVx8IRtQB8p5PkJHWSw+Vd3gBcdmFXKfCSfaPK9o6YbLNhI4OLSwaykGjHaFPKcGo16NXocOVY+7EABW3ASJWE2+TK3MB1Td19eR0Pcojx67L58xJZk6JnUWkwI0vhEjllqAHmWQx3mVjhPYuepaK+Onr8v3zBeZhDDjJYP0OLHDNqXN3eDPz1F+mmlTxwFpjJw/U0dB9KLrD9DylmOspzIaRCyzaeWdMSGvHXPrQG70WH3kbsOBrcp5EGp9hU2pLuFLVCjq0d6Y35jHbumZa4FWslGHsLcWsxvlSg0w9dzt8t1fLKvoFibhRdni9LmXDJHexK4lhe4kMaU2FdoO4CEscYOqEHBpgRJ747YEyroiUJDBUqV3QKbTaOSguiPACMaze+u4FAhcL9iIPiCoBOPhgpsK2IK0FjPFWK+80i6eOnEaF2MPnFrWJLpJHDQmHpunNgQUOEk++KSS4zy9DiAwmkFQevrCvxIRRcFHuka0QbHvdQUFQJ/QlviEBkt2a3RQoDD7iMYgN4xoo2l2391U6PscycQFnyerhjqdpaumEx2JG70nQpZEtRopoDMZhAQmRIHhNpXCIuXwiAeR3M0QWNydI9Xt6XCDcdloK/GZUWt1AZDG2FWSI0utUvBzUdSytP7IF8WwowUd2wxH8moCot0joiYjJOyTpYtDrOCYeNMjE4ZR7uRk8KwsWLgjFBGEunkcWXrlXYyowPwhDYo6RHdSFChtPGtdCbRBVFcAJmOpe+RPGzEAs0Ko29A0QNdeBo9xLQbhPqQfha0l1Rap7eAiQdyOpL3SMfYxUvP+YX/M6JhxAWavOc0wBRgx+gjBenakPv4PGDN0ZYElk+eYxLdrjW2IDu+DyvYgi0tThQcVHKki1vNwyc3HJQltsYBWbZC8HTVbhQVVkPWvgq/JoRBFbmXwoINrZrorV/G3Y31J7Ys6fvn+UjWMitfxmbY3gbKcnv/hMlW6VSwZEYEHWlH9cso7LCKKFQsh6r0DiMj7bbxzm61It7VNk9BWBgkfpPf7gH3DcYFVyt09P+4Zftxy3Z2/v/3lm3N0EJnpkfeb6SBzScbqHAefm9vEA7sDXwHjhcdxhg8vcUDCm8dhe2QMy6crGOx+G7ZctsRmT89Gmw9l12x+QV15Up3Oz7jhjd7WsJ+YRMpUgLfXwJaNrzMSWEZNAZjEhuWeYz3TcHRDcF6TWiZRVGOW1bzHJ0apCjL8r+we0UdhfsOl+mrTYpAzfN3pxTXtY6uqPu7WQryhRmsCE0dXQ4YqoNW6uhLSrqUsqP8z+T9Is9RJiSdo9igX+uiP9mqwuQj+pPN+i6P56GXwBG3M552ri4fQJ5WwL3v9p3K2x/vLxJ+eXp+vr6HePs9vnhoH11fWtSP/wA=);lineShape=1;fontSize=6;" vertex="1" parent="1">
                    <mxGeometry x="129.47506510395462" y="47.472098493187005" width="2.254608269306036" height="1.002579859849112" as="geometry"/>
                </mxCell>
                <mxCell id="41" value="" style="shape=stencil(7VtJchw3EHwNrwjsQJ1l+R+KEGUxLIsKit5+74JpNAdZ3Qnp5oNuw2FlN1D7NnfpzdeP777c30X/9fnp8df7Px/eP3+8Sz/dxfjw+eP908OzfrpLb+/Smw+PT/e/PD3+/vn9y99f3g3K8em3xz/GE/56wVXvUhyo6P9++aa4HP794ucX+k8Pn2/oS3clLPTZlUboqwtloU+uJ0KfXRKgT5nQRxf7Qh9dY+fxzmegj/6aPjfX1vMH18j5c3GpA/1/DD6nT86v9N6JEPrgfAJ6dt8kLgjQV8LP1FC+3pVO6IvrDc9D7psyyksvRPQtRVcF6Jl+puBCBHoh8opyoj+F0DeXVv6rPpPzqDmBfIsLRN/09aku9NUJ4WcQl9fni/NEf0JFew+BXiAkVLiQXSdvENfBYLqLREOb8yu9SqwwC3BlZZB+I5Vw1BUweD0PoQ/zv4eAVaUIver7KoCkGkEs5njaQX+4yIvzg4BTd4kITB3oapDZu0joK54/R2qRqnDr+dWFsQgQojmQCoy4oFDwxlk5xN7Qp8s5AG1a3TlL1Sc0BDRmlcVFMQCmdN31jIBM/JD6uZbw0pm8ITV0LJnbpUYOjNxx+u6rUCbAVu8yi2XiBGJ9c5XcoaRp6Qcgc0A1xhBcJYLTdKWCt+jUuxSZzuQAlOnQzs3HG3+kGQsH9FUOIwQStg4AuOxOBaeAtr5BvX4nFmfvoD5e+Bswy0nUqSogQlQINA8ZAL8C9BtiQAoAv6qZD39BWF/QXSaapPQQpxoNO4O+Av1GaHAe9TBEUQd9Q3rm5j3GNbVNrqYJn1/587MAPTM0pa/h++jBQW7PAx54e1/B51N+qtEaeZGYM+jxPFQfgtUfYec3z1f9Z+fx6N3VwCpX0A4WyePHkDCk7mVn83W9gjo64TYJOqTZUueuFALOXovgSJrdsfzaOmtN16gdGzlrHGdRVgGYTwnnUsAMr5RZFJ4DIrrSV+O+ApTVN1bN4ZhqRCfrkapw7U4zezqsIfFLJ2P+6l8YIM/wcsQDzx28KUS6PoKpt+ZnAGi0MlImQu+kCy0tBtfBB0RauyigrrokiV+6oHpLoWmqAgSOVLmf1Fx/tWlp0/FcASAXEU3xWKZQ0ZGJ8OSlo/LpGwIx0eaxXNBLV3KkFl0FtmYafZpyfVUNlXQibG3daKtMdTwF9IBF1UZbu1XvTFtT+jzQpR6pLolJMdREWVGlPIHsX9nADEi5XiCot+nazgEFk/lWZ5l1DqhoDypK1mBT3UxwpDQ7GpcAQQBzxgqAwnAA+BsgKLbE5SCzWL4FMLYKdhXHpYkTEFN6DgBnqxgusfQneG8SvkR7AGJKSQWwUlIO734b5DZ8tQB+azSIzJs9Ml3ptwOyUSZWSg51tQDiXIezNtrHqtsBMG9oG0BEAKsdBsCqK1eNZA2CNVVlmvC3W1A12rqzUXPpjRfADCvN7sylPZgcjjpXwSxxyIF1Ds9tlN/avoJVEANg1ZUbxHcCmjG5wi2oGodf+RuKaWU0/oZkDEJoD1q0qFnVVSM1c329o9vovLjsBQ1Cv2H1rj4vQTLdZn16njEJdqDkSOvOARVHT8KrUVUEmMWoZFiju9kav7nAUl0z/dPMlV26Noyjw5GwwqzOpvNrG+EwwiuEF3wFrZALBq1Xf3tZBtlbcwDkWLJpzhTTbKy88VCM5MquHAW+am5Ku8TZcCnyuY8ZFHWh2YYCYOKgFsRm21qDQ3rSj+nvZZUPNsqnwwrAJhnP12uc2nzrjTkALKgKHdCPbgs0TwqtCGw/Z3SpGFs9xqxSdq3xAqMioSmW7daPnhTv3PnVfadOi/Yipk2W6FxcAW3l0qZzV0zNsekN2jdsuo/lcFu3/U222yJYIY8OKltukbMe7QYA7pvOln8MNX4MNbAZ/X8bakBauBvSwWBfeH5kXGnYLEuYC485JgdAphCOZPoyHMAb+LqEAkBHwyYXCVga7ubJBhAPOV7eYVW7mHiX2M/1iwNQJ6OvHB0U0GPjgm0ONEzOE18MK3mWEwfgKJvOAf5kUYeNisaCx3rp7Gl3MgezkJGmPzsFpDYnSQeg0NlSMnOZsUnD1ts6tjNz54CCrRIFsAXPaKZXebO/1TGJ1DtUcmmN2qAaKpnKNriCuXShvZVu1o02uTyW2zlysc121o0isSw4YKajmsrozbZHqjThNF2YxJckPTagk6dtzDBXiG+Mn/EzYV81ZipgM1EaS4Gss4UNxtD4hlvEbof6eDayUhWF5pzqINO4kbquAF73D5auKlRpP3IwEHwXTUz1cZD68rXu2I3IZklyLmG7nEATBXV0MCn1NHykjE0LTwsijRXgtTzdRhpr13ge1kRJpuPsaUTW0BHw+WwFQAMLTMM3q38FNwA8XaPODWcjfMm2mIkqXx8rZiOBr/lrtIdB+OZnBHYRkepn6XjfPNeqLxMiiHq7LUQYmOXd5gwUBtuFP+w50PysehyvFToxP6Nn8hr0Bek35/dAz/yPXeMps8n+jYUczwhGoWjoeYJc8DwbeogwhY6LvvdnQHt6/fD6m6MPD58+vfxk6fb/+Bsl/erl903p7T8=);lineShape=1;fontSize=6;" vertex="1" parent="1">
                    <mxGeometry x="126.54083414583582" y="51.30398370206735" width="2.0626968124746736" height="2.783578540473005" as="geometry"/>
                </mxCell>
                <mxCell id="42" value="" style="shape=stencil(lZbdUttADIWfxrdnpNX+XlN4D2YIjYc0YUKg5e3R1mOIlkSd3vnv88pHR8c7yc3L9v55MwV6OR0PT5vf88NpO8mPKYR5v90c55MeTXI7yc3j4bj5eTy87h+W8+f7/mQ/+nV462/4s3CNUEKnAr0vV2JCan+v3C3Abt6fAxmlGCAJWnWAhsoGyIKaXSCJAUoEeyUltGyAqis4QG2IFmiMFh1AVbIltYLE14FCyFYlJgLRdSITJNolGtiRKRGq7ZzqQE4jooBtI2oFO4BUkAVK84EMsrrmBhIHKGMjUkV1VIphXCGqW5zO6W1pFggITklaQK4G0CKzs0KuaMkCGSE53lARrZlU6OB8dG+TXUFbGfyBoGFG6V8zykPjCLFcB87c/OkNWoPh8hI6MBbQofJa3UdysGtbX3FZJh36YUg1GJySeqzYkr6i53KrBeXbjFYnBjQa6wBofHozmhCHoVZZHTN1QP4HkDima09Dx0whrm7+BBKyE0yc1rQ+i43ofHRBtW4tDHHaEMYwzrym7cXn1ar2AxKvKXLteWuLSODg1ZNsYgRfUc0TWz831xQcR4GYkZweBxmBBHEmRz0x/Bm0AY6garpBofHfpgdfO47HebdbNizn98cdil5adjdy+wE=);lineShape=1;fontSize=6;" vertex="1" parent="1">
                    <mxGeometry x="129.43355353481513" y="51.940946773742546" width="0.04068968835337116" height="0.040814510705581675" as="geometry"/>
                </mxCell>
                <mxCell id="43" value="" style="shape=stencil(lVnZUhtBDPwav6rmPp5J8h9UYYIrBFOGXH8fTZxZ7/SsG3gzprWrkdRSa7zzNy8Pt8/7nTMvr6fjt/2vw93rw85/2jl3eHrYnw6v+mnnP+/8zf3xtP96Ov54ujv//XzbkO3T9+PP9oTfZ7taxdhm5cyf8zdGkv/3xZcz/vHwtMZHCRHxjuCNOHx+MdfxJUjKA96KCQS/vP6Cd/E6PkfxFfAxX8enKrkAvjJ8wHi6HrBNfCzizYD3Ykh8opMcAM/iH7LY8fmhv3Abb6X4AR/FEP99kor4QurHO4lj/SSJ9TreFYljPLN48vzmbhrwRSzJl6bHjP4oIYg/tkiF+jHiSQJsQoesE8ve4MWNEbXKCZIydSDAGzKt0SxlpIwGIZIjKGVGSuoT/pNiO8cSRsp4z3Pc47HglXTEfyt5PG+IUkmPmEouapET/5UhI8WintcSzksd45lcJ8V2T5QKFMjiWAl57BHZ0iahNRfHE+TQi2rboEoClmUxnDYRXKq9cW8bhB7ChZfaSMkZNKoOiOxpFrQo3VhGJdKwuoUli0GSwHuRAwMtDHaG2aDQyrgQa+lGOj95lKCWqpXADh1xflQniZEniB0TV70UXhoWzrD05G0DgyOzJt4htYGNpVFzf+e2gR56ZGgtVFVcevpiUKUwlwx2eTWo5NAVe1jDkxdUCTAUjKE9oE5pq3QoFClhwhO6FUlxihApvIJNWPGZ46cAMaFTUDcqng210ot4hQ+kJDSeU3w8qbmKQ7nheUHUj+BbxU0GgcsEP50gsDFrsMe3kHKX4hRTNhSagUcDOvlNj/m66rhLduYZTTO2FsXTNMOkfZuXbuYleUFBfd3wZIQUnLMtQkTAl42cZRLRggduOabPh/2sFRHFzzwI1J+P4VVMY2vPktjwUFEwjSdac9PKogOQSp1ph62BLsltp4RDe5oEHeI4nhzlvsoEWEJUV7C9UYWIAQPTO+Y1A4jSW9oo9X6+Vl/s0Kogx1JVfRdJpvXQwAVVkJ5rozhpVFYabbkfo1Qc19kGx3LmdG6r3zhnVcmzCxHlA3Q83RXoHLF9G11tI5YyFEpJ1x0W1Yj6MfkuEK+tdyMZ2rpGYmqwY0S+iSz9fL1ukkI1KNXaOsuWLxSnbV0m8fHYLXRrSEQ6JhQKrX1QZZTHCmp6m/lvO6tWFxaBJKz9GwwsHcrqAKynXMs21kCroBHSkMKlTqbatAUcSpqS0lscyoleMvmEYjPSS69gUewHWkEh9eZ/uURkFzpRV7oIeOZ/IyCUHJ3JSnDoo5yRqc6XuKyic8RLPks7SpnWP0MlQgkoEQw9b502Xr7lb126M/+3LvWpJq19RLz7+VA/hq7TlzVghWeiuuIlNNcSF03/vniuNPrKgGnALQO6zW14FNiV4MaJI8/YFFGmqrcyxu6UtyqC/szz0Z+R3sTrh8tvVveHx8fzT17r/+NvXPrV+fcx//kv);lineShape=1;fontSize=6;" vertex="1" parent="1">
                    <mxGeometry x="130.7632685703256" y="50.909530874840975" width="0.9191311386259206" height="2.8899653179372318" as="geometry"/>
                </mxCell>
                <mxCell id="44" value="" style="shape=stencil(lVfLkhoxDPyauapsy8/zZvMfW7VsoEJgiyWvv48cypORYJpwGwb12Gq15PbETx/bl/fNFNzH+XT8uvm5ez1vJ/40hbA7bDen3VmeJn6e+OnteNp8OR2/H14vv99femR/+nb80b/w64JzVHwHBfd7vHDu74vPl/D97rAIj1SrCq/ky3q4D1SKig+ZSl4HBCafFCD68eYmgB0lvULMlBoANOKoAMmPTd5OuVLUFKVMldcBqVBoGtDIhXVATpR1DvIJD3IogZrJgSkDlkql5ixLGdS5MhW9AldyYIVaqGhlsKcMkm5SV72CSMN7AIgUswaIVoGW2lWlRb1ogUbJsEoJZdCoBNMMXGF81WX2TA4DmgE08kB53s3dO3OURuX/cwkOlB9KQoSBOrqzxLoKTOmhMohWIwbYOuP2EYCRXkxD7rcB1bIUAwUkjUrVtE8hh3KYSZwBjjLeUtGDUkZnQUnLlrQ0vLCECidJa3l7TxEMSqHV6REwD8K1+GDGHjn8/XgVjyhqlLPdD9ZRZZsw4wXMGPa4yrf6UwY33lPTZ4no4k4Rmj6tWE6rO/2pqybahnO4jR0vuiffqZsBiPLwjHkQECnpymVhCQE8BV2HLK4BsCTHm9FGwSzJAWraTc5gtEI/onVDVyzXbgK0vIUGBnXoNkNXWloc+ZJuZDRgIeBVr+QeWaK7MT1kGlMANHW/Z2iqsCG6o9RbktIk7Fmzbrnchutd88TGH4bBws34ebAv+wfMyVnKc3yEp5UjNgdugD7G2V6QoiDL7SyhHMdptxLv9H6C8An3Y2dkhOe/GzN3VmmFnmd2jQsbhpyqs26hQjkIneYGMxp7rVpabQGa2iv5O+g5H7ze3Q2Xh383ybfdfn+5iC7/tzdPeXW5tfLzHw==);lineShape=1;fontSize=6;" vertex="1" parent="1">
                    <mxGeometry x="130.57679061891002" y="52.26099966774592" width="1.3553267636910316" height="0.04003341448377823" as="geometry"/>
                </mxCell>
                <mxCell id="45" value="" style="shape=stencil(lVnZchRJDPyaeVXUfTyz8B9EYNYTGJswhl3+nqydqJ6WajpneRu3pe6SlEoddYrvvj9+/PZwCu772+vLl4d/zp/eHk/xr1MI5+fHh9fzG36d4vtTfPf55fXh79eXH8+fLn9/+zgkx6+vLz/HG/696HlxZSgF92s+iPm/Bx8u4k/n5514lOiVeBTXj8WrNP12PKjH4j5KNadJkhxRaOKyVugS47HCOG9SCiFPD9xWaBKDttjPJ7c9FCVFrQCjPVGADU4ppCSOKCQvVR8pdSmJKCTJ2ks5cYUiWduQm3QS5wQT9RdKkEYCl5q1oRTqVpjoq1bo85BHCtFgL0gi0IZC0tCoWTwzGgr6SLVKZYGDQlcKzYnjRkd9pBbuHclrt7YkofE46IRuZYLlSMFpoxugQRII0DA2dC+B2VAkNa2AlGJfyJL1kXqejj7Kh6Lh3StljRSlmSM1aSyBwsyvjZecm2l+lNTWiDtJDS86eybHjFi/AD+wIwWJJtSds0Bc8A3m4YFoGq4VeOTElLTRI6nZF5p4Q0xFAgFTdrYgFieBHCn7Cf8duVb2hShFG41vFkIbGTSk0YecCkyhSNFxGBWF8AzY3dSs5Ci+4ZO4FLlKvoByYCpKTJSNS54n3tVdT9Ball4DzQaDd/W27oZEE6iCSnU+BCeZfaFK1jZ4BI4YjXJQdKTR/0TyhYaGSbvV+4mu2wrFpmjnJwK5m4Sj0AO3m7BlWk56mDjbkCeeAA+UZUgsUErqxbKkn1R+W75PCEx58AGXD8HKM/+gBVjkSYBHEVjkmX+61G7kqT/B6Pb9gXTofasAV/lEcuaWPEvKIW/9X/l5mjfy/Y4/zcBwz/9pkWd43tLpf8ubcuM4npd8dBzPbcUDK7B9q79X+cz83+zE5ujAdu2bdnjj5+nNyHueX96eh3F6X6aEu/mYF3nCtyMfrb2sig08W3sDf3+vRj4SPOza0F2AOUC7NZjNOMMAK99INzQctCQwJ9w/ky+WUAJtqzE6mCIfecLEyWfXAtZYwDC86wAXmgBouU0vx1corc7h6lrgO4nX6NDNpBJoBWgYI3QA0KN01ja1ichdF9QI5MbYrTl0kCiJMTq5vnRybO4ozQYhYE4gNqAbNWmGbpTVsRKtl9DvsjgUv3TU2+hyu2dfKtOYCIkNuVoqwlQQSaTzhszd3MG4Ygw+Og6YbJjRGIVM9cOsw+gaw5YZhTCJ0Pmv23QohStUS/CYMAtfV5iOF4Bn+QCvm9UXcpD1OBiriz5S500dBveuodG3yBwptGWXkNgXFtYbPMtsSHYUAtF6vtRJOoHAtFRhm+t3eybWKkPBtBat0cEd0CjLriyxfV+bs8B+G8e3osFAI1BegoJd0dzZKLa53t/vLO8oGHhnOgEOG8waNdApeXjJbFz63M8dxkEfCTmd2ZHKzK9NIdKl/wCfhgbYlm6n47Iwzxx8zpLxWDwRmonVXlyMlGLXCsHagIJCr0aqRE2VqHGs1UAn5TW8MeyzwKHum+20580JWhGzHxy9BivsttlrlOxXF9HGxNldQqA0vHX6V3EGCWc3D56WkaWP9/TC5YZ4IS2Vs2jztPI7iwRPy4ezNMcvHZ29QfC0Q3V2xcX7Ires6unE5exAfe/t3UY1sPnsz65j74rjx/Xm9/P56elycbz/v70pxqPLLXN8/xs=);lineShape=1;fontSize=6;" vertex="1" parent="1">
                    <mxGeometry x="132.7049783199886" y="51.74293557050789" width="1.446984922524786" height="1.7239300054156412" as="geometry"/>
                </mxCell>
                <mxCell id="46" value="" style="shape=stencil(lVnZbhsxDPwavxK6JT73+I8ASRujaRKk6fX3pWposxrZY+Rt45C7FDkkh9Qhfvhxf/N8dwjux+vL07e738fb1/tD/HgI4fh4f/dyfLWnQ/x0iB++PL3cfX15+vl4e/r7+aZL9qfvT7/6G/6c9JJKyF0ruL+nX7z48v+Hzyf5h+PjXr5KSJN8kFSJfJBcJvkijrw/VklttseJi0QhiQuzQpCqlxWCitZZwUwiRwhZ6nwEr5IbUfBSwEeRHto38bNJ5qWUiEIWH2cFpYc2n+TZSzGKZwrmdZ0Vqvh8WaGKznFLXiJxUhHvZvks6giQJM1ByE4KA9JAzSafuYdEZwcVJ8pCIGG2vxQJgclHP8lXL5WBSPzsz1qGhRfOW+bzNkMhOW+ROEOu8SywrJnxoIYQYr9PonPA1Ez05MBO2lyJ1JKAIM4gV+YQaKMKVirafGZV8cQkK14p4BeUgM4wCYlsCoF8IVeJEQ/NYFrS8gU7FVGoDuujWi0gwK5Z0uzWptJIpNsGhE2hUmi0iNBoSSIJnL0vgIIlD3GrYRPqY20j9ucVArYdc0MhJulSjyyfM+lTFlcwyQpGJgVPrROCghfHDt0kzilqJY+VbFNoUIOVNgVTqDOWUuQmVanzF2KhVUnzcOKm4EahuhS4OAfOOkUjbm1ttI1NwUkggTNslrlyG18IJIHaUgSs+zbyhQ61mS9YwrEM9SOsG/YkEB+VuvRCiaSVlCh5PkCircE6JcAiSiQhyG2g7I1DVmKPwRhwGiQQEGVrNMAhRUkepCVxLNGI/00eerMblPKSvPMg3zjHVgfyrNqZfCsgzyp8l1eQZznW7Ud7WFNLC53dyORF/y/yBA8mX9Aex6hjG+m3k2f+UWyZltHMHl3xEBjeFNuZk8T8afL4fjZ/dHm0v3J7HOKBUQrzp0JFvOb/suQXz0forZ6OTyYPM+lVexz6n44elo+In8rzd81H5s+KvNQN3nnRHnx/4P7xmC+e9KOej0t+8XqYEW9X/F8zyvN8f5e81X+c8Ll8QQLrqf+tf2XEG6vnxttwWqdzSuf4wJpofK2/F+zXmcgbf2jzeY2JstG+IBNVuiMycg58wwgQaxgt45LI50EczyvoUlGUpqTNngkoR6Ix0IJfMCLqSRJ0Mg0KhVZpmz2hqnQyTQ7tncM+3Cs9s2nbU+0mAoYkOwRw3Y5dRr8rlgqbauhklrF3dzSyuSlishkcGZtQj92sKk1nmwj8/IUWKD+2iaDCwJvpGGQTARAQm2jZ8qduu5jdtqWwEWLrMLttSyTQsBqDCpZy5Au5LkNKpQu47JbVxvVtS0YFVldjwrljlyKXVka4PVE6SvTO6vDUrJT5hGDSxFMOc1o5Wchj1Nvt7eiWDJ1q1ZmRO4d7vlrp/t2NmO7zmYRgqWGlUDLiBip3e1n2fj9G513JY2vHiAXMcMtW72lshXd7a5aZBbeaiZPZhv63NsJKhffj/mVTsGmaLa7TGGa2VrjNF+cVNsRvCpkuBNeYXSE8fWUDl1B8z9qzZiEMLGr9tgNGlkB3Y715w/qaz8jLnU+m1x9p2b97GrXOyZEDJ86xE86MkXN+sN9RUKRld+joDiq1MzMLn2EBpVfsX+4xr/jHwrnM4GxG04GvN/nC37/4n+24zsmzHeA5e1jGrOf1dKf37nvhq/L28HYJ/eX48HC6w97/Hy+t7afThXf89A8=);lineShape=1;fontSize=6;" vertex="1" parent="1">
                    <mxGeometry x="134.9015565034476" y="51.86782619287891" width="1.3427434521540185" height="1.7954972181056899" as="geometry"/>
                </mxCell>
                <mxCell id="47" value="" style="shape=stencil(lVrJch03DPyad2VxBcmz4/yHqyxHqiiSS1YS++8DRsXRsDHTY9+0sB8XAI0G8G7pw7f7T1/vbtF/e315/vPu34fPr/e39Nstxoen+7uXh1f96ZY+3tKHL88vd3+8PP/99Pnt96+fxsrx01/P/4xP+P6G866XAYr+x/xDlP//8Pvb8seHp93y4GpflkcX6vny6Gpalmcn6Xx5cjkuy8UV8unZpbos7y6U8+XFiV+Wh+hyO18vrq8fH8Qlsr7N/25v410L5+u7q7Ku3054/PbBhXWD5F0hB9L7lXWHpDsw6ybXwV78CqG4sO6QxUkmAJn+MgFFD9kJoDofVkBzQqysAFl3kEy9KDQX1ktXPx/6DJDXmKkXz9qmmSagBefZpS1AeFjqkVY7dO9SpIC4XronV0ho6rO2NfK7OM+8tbqcV0B1lRvOr9Hfm+vMDmJ26K6xIxVXgAG855dQvgq4RWHvmswzbd5yBkgFn8mzkIvI2D27ykIuTV/bAOHqSH19V/W+zt9VVmca/s1N3dYdqsYoubQyKfi3VHoHTSUJAH5S1TFAMKiVmBpLbd3JGqOZB0SK6Eupz4c+BpT5iDv69ix9imvA98ElBlDfXLlyJDFih/cT73JWJ/GQgysA2HLMMSC5uF76QmJkTUEgSTwVGVk9Z7VD6C6SS+eOGeWdDI+FRnTeKAchO5RsjlSoexdBYaVMxbSJJs26eqtGOdtBwwXcW4lHiKUlzgy1AQJ1b0nz83aATEJU83gPCGCJWmR6/w4QieHE8JICmP4RQwL6rMyXapg5cGfpRF5JiRGy4hAHxA5V5hV3AVSIpavRDrHSiGt+cvVGM2p7coem/wbhytm7JXylrGRMLt0y1iUa5Yy9W0Hm06Bl4lsBwHyFx7TmzLQaTkOKsbcCKgASTSitIvNJmbRwBmir/pE21ccxoE1NuJPGTGu0jpeucYbUcQ3kjfjOk6nOACB/1OGZe6vYAUWmDs+8teuJ4Uid5jhVzs3I+8oAGcssdXhWBPWCpejwX2Jp1ebwSmr7SOJBVapfXUNNyUhAdXCHiiPOZzjWfO9Se4fo7NZ9/ntXowQSEN2oEwVEDmgWwI8EMaoARt+jXGgGwN8VdGhPNEa7CbkB4JeOBhCZu3Ys8ocdmPcpwDwrq2kOdoi04hh3SAigvZaOUqBHypXDDuZIwl1DjHsLY7I+qXR/pAtvLQZABNNBPMT5ET8bcVu1+dNBraa+OJN1Jh4QzUQQ64WMd60IYFXQsJzphSS+QzbEdAFI5tKsPTP827BA5JYL5tKs3v11QJ3CdpchMqM+waDWHFQYoGB/U7NcZUGdkWc0jzLV100rRKUpJaY4JdsG8DyjBNyhcrk+BBC0QmRq2VOJtdqhFi4TG3pr1WdgIq5Ootupvs6lLqgN1ZWss95MYabKler7gtQ3tPGFvgeApy1XBUDNPvQ9u4NpDRbO98021yvVP+qboFy1Curs0gHnJ1pnsW68CluBDlOkJXitmOS0VmRCtBo7RJ6C1DehqNF6lzVbhm9CCc59SX0T5zqJto2l4mAn8JmFmCGHAgJrhSjzrYYbvRNiafV+vEOksy+JpocVKRmLIbLR2SCWLh3zQ8i0CVwq5gcFsEuXPMl911ZjFXXZGh+7xl1gjTuPGSjw7v2IYNih0yFHLliCxzBtf9YPBdaI3PmUIyL0dDOtB7LHmiYKtXTqZodG55DJjORS4IBiGtlltpCOAWZyrLdilh6T09UOWWhXQHkO2mol0YSirw7xoBmIVX7qCNgwqnzS2dBwo3fC5jSCzXjNGKxbqQEJGahdDKc05EGsB6oExqwJAJm2mYNplavOpOOvjFQ5eh1sB5lMugOwltR4VigHKm0NjkknFByFDkUUYOuHzKfmeCRPBzsKqKDuLybOFqBExneATsiYmvM7AM1oqo/ccA0ijn/dxFp6jEkYoKD2LrwpMKYyK0Bphg7BEwaQEllndghoh1T4ENyj9k4XPV2cusRCr1CxZxw9HeOL0T5X3/rBCQrX3QmnFZ3204xmkNlOOH5O7CBmKm/9bGttjzMT18lyIApPi0nTjPFUnB8sZ73Mg8OwloRHAckH8B41M6/XPJKDpzWtRwnvaR4z6oB/TcRjKXj16ZC3PRXKfpYzu4ekh+l4dtZf+8UvAF4u1x/ev2v45eHx8e2rivv/43cT9U9v32tMH/8D);lineShape=1;fontSize=6;" vertex="1" parent="1">
                    <mxGeometry x="137.00788374082282" y="51.32894939772681" width="1.8696883742719177" height="2.344710990695585" as="geometry"/>
                </mxCell>
                <mxCell id="48" value="" style="shape=stencil(lVjZUlsxDP2avGpsy5ueKf0PZgglU0qYAF3+vnIzhms599zmLYuObe1H2vHN6+Pdy34X3Ovb6fh9/+tw//a44y+7EA7Pj/vT4U0/7fh2xzcPx9P+2+n4/nx//v5y1yTbpx/Hn+2E32ecI6kNFNyf/kNI/374ehZ/OjyP4nkQ95T9uvjHv108k+N18UAxjqd7irIuz+TDKJ8oOiQv4/mqjwvr8pHqaJyQyIHzE9UyyLOeD8yTSdIorzcC+1RyRl6IgbeE/Pj+yBQLcJejNF4QCyUECBTGeEgBethHCjICMhUEyJRGHbIGFfCZFwqjE3KmGkHQeRvTxUMvaFjk0UolUwZWCoV4jLvqiYEO6rgyWqkmSiiwPZXRSrVSBTcw90TpAPE4dVTp8Qbhnq2XAYnyqINEEnSDBoJ5UuqeuQwoVEbHiR4B0kGzxRlAgUpH162+AAjwdAw2Q6VSQhWGqYwVUqQfcRmQrKcVgEIjahHIEwCYNfGFGzx4UtIilK3SjMpe6g9YOA55ugTybEODQfCVSmUsAhqtCVXWMungyYMbNJjzeINmXAFKqxF59HTVugSamwIiTwBgpebXMgFQexCbcds31PlJWAcJFiDIrGL5iHoGtVDvXG/JS0TFVxQLgK6WXrcWgIBdbct3gaxKATlPAKxD4isBPD8JuzpMjgigkrUiMd3gQa38rCpLAKhkDRAtAJGNC0/CdUYm7tAAG0k93VCx0mlKiI0ctaGxndTzkzbyYaoCgj1tEyj3rL0mR7ESMgfTxpumhPC4MtlSpvGNq8CVgDSFq7Z2EBt6nm28HjatMvF77XLIc9pHLZ9JkH1rp5aJADHQQblANoAKb1C2YRzXUgQEU+MzI2ARXmuUKU4MCDFRJWUhWUBELM5PhKbCnFMmKldRJq6TDgXSDS4TE809p9b4unVEhrSPp+lYgwkltc4c1ejAcLrkYAlNSwg0czg7UCspE/AknaiNH3TQymj203HUsDidm9AN3OewxbBYgB90HDXxreMo0sFXuzXJGQM05w3A4xmcu4qLoR1Nl21tM1opKYNHfdTOirH0GXtlEcKjUSOm98USAU1ANPjlziCXixmQz8n2t7b4AUQjWvl2AgpsO7gGfH6gYGpkgsP6R1otFm/Ins76K8PnfGzZ/m9rOLGFrZ2k80YcdX5nbel6wq2Imx2jg9OF65PBQhwY3tmhEC8MnR0Jceeb1nlb4tlaBj+mTOJQ1To9BhpSrN2xm2TyKgyCa9feWFw/fG7YHw5PT+cF/fJ/u5HXn87bfL79Cw==);lineShape=1;fontSize=6;" vertex="1" parent="1">
                    <mxGeometry x="139.71075058046586" y="49.79115108138459" width="1.8786949260948391" height="3.698511312806635" as="geometry"/>
                </mxCell>
                <mxCell id="49" value="" style="shape=stencil(lVjZctswDPwavWJAgudzmv5HZuLUnrp2xnGvvy80KmUTqlb1m49dETeWGuTpY//yvhs8f1wv56+7n4fX636QT4P3h9N+dzlc9dMgz4M8vZ0vuy+X8/fT6/T9/WVEjp++nX+MT/g18ZjEjSTPv6cfaqQw/fJ5wh8Ppzu8J597vND4dQ1fyZUOXyLVso53hQJ3hJwpIYNme2eCo5jXCSJUfEdIgUJdJwRPtT8hJkrAh6hB6glBwyDrhMSU+6jqmRERig2rJKq8TsiBYuwJjiqIUq4t6o3gMzyhCMU+cT5QjoCQWtRngicGmS6lGdAIrlIIoPY0rP0JTqOECJ5EeoL6kABBmoszwZNDhEiuJ2icQaLrIkip+fRvfKWYOjyTAzFVfLJ4BllWvKlUfT7GF4tH40XxfxN0wxfsbzUphr3sePZvrjpyqCRqG1c3/EYCaj9dhAQVhAYoGHzZSECPD8TY/iQWv1FAYuypOGHB2h+xPZINntH+UHww8Rdsv8E7yqjBFva4rYIOtkDRthnj6Q3e4+ebfDEcist64K16KBbvH6pnHaobDVxMPD3a98uGdO3E/+x4XZXggOVEEXLY4WILNOEEZ7OKocB5GJ9avOf4MDYoLjpA2lJYW2ImQrom4YzwFEyOC1z1uohrX9RaRRVpg9qGwkyQduaamIimKtQHEKVRrhhCoQIGxSiIesKWggqUTOGpScBpFXW+38WBW62vycZiCAmqCRWm0vdaVPUOpkWQNnxm+aFngvYXsVpZvUrAaZXvRjbm2CTG2gXBEIprHbtyAzE+VzzxvL1P1AyDqoLGKDqdOKDduOmBWz9jzcWLK1eFSpzt3WDcKSBAs0K8wwt0mI3DBWo0tr2seAG9vFgImoACipRtjSoerRzF98NoHLH4+cXiPUyw6/teJzIqUG4X6Ds82miPXtm38frh9n7g7XA8Tq8X7v+37xP0p+ldhDz/AQ==);lineShape=1;fontSize=6;" vertex="1" parent="1">
                    <mxGeometry x="139.10494382857394" y="50.377359867602884" width="2.425770231099549" height="0.39513485382347335" as="geometry"/>
                </mxCell>
                <mxCell id="50" value="" style="group" vertex="1" connectable="0" parent="1">
                    <mxGeometry x="220" width="100" height="75" as="geometry"/>
                </mxCell>
                <mxCell id="51" value="aabccb" style="text;html=1;align=center;verticalAlign=middle;resizable=0;points=[];autosize=1;strokeColor=none;fillColor=none;" vertex="1" parent="50">
                    <mxGeometry width="60" height="30" as="geometry"/>
                </mxCell>
                <mxCell id="52" value="" style="shape=stencil(7VvbjhU3EPyafbV8vzyT5D+QgLAKYdFCbn+fclY+jKvn1MBbpOQNzrrGY7u7urrd85BefX7/+tPbh+g/f3l++uXtH49vvrx/SD88xPj48f3b58cv+NdD+vEhvXr39Pz25+en3z6+efn/p9dz5PzXr0+/zyf8+YJr3uU8UdH/9fKLdyX+88NPL+M/PH48jK/D9baND+uHe+PD2MYnV4MY313bxxfn1fO7S2UbX92oYnzj5+MFsxyfwr7e4MoQgOr6/kIh6x2tLu5vFJobaobiut8AOIOq9qjwHmFTsxeAzJs0d6lIQOj7Kce1DeeA5ErdAVVva3QjboDsXUwSQNuaYXkKEFzbLTtXV9UaAi86D1fUOfj155ttx3Uy9wB+36UCbxCAMlzdTaPA3sWiAaBdwpxJA3zaAVESQOlsrTDHKBgAgLJv6/RB4dIAZAJgVfqViPNaWKu6C9gX3aI86QnYT7olNy4WTa9UXNCAuvNSA48In56AfZdac1HZEph497gGru0aQLt0M8dvnKF7Ny7WsFtrj1drqLsD9SSp0tpSL8vL7wHizq29rlXdA5ADdTxCAZrru2n0i21tbEvDuy64FQC/L3pE59UM1eXAABWyQFvkDyO5rsw7M/ONvOY8BwSODwAoFwVXkwMBEATN5LZC4GENishyZjIe0EpqBqyBdslLIksgYzKNG1OdAwqLE1ir8mmEcWK+jl0SM0QTH3qQPg0pUon5hmvCpyNiJnGrjnHhFg0O3KqML4BJ6ZXA3kIkhsQCC/HBi20NnrUGdHgSM+BYd3eYOlnJXN4jxNAoHBS+YoL0EKRk1NiUjGpLOfhAACqWxP5kHu/F8/1KEg6qRDmCX/x2GJ/08814FRY8MyrGK+HmVwi4jQ/S4jwTMMYrve05Dn5Vu3fGj2zGKx9jj5njpT2U9H3P72a9Tex/5PBxsT+Ro/jcfzk+kWy+zXjPv2g8Yod4/7pC0cG/svBfZIxkb2XFknsExLofJCpoGhQXyAOGZCCQ6AknKsDgM246cY6JEwUEAi82CbsUCTCk1SW/RPtRbwqzTtmlfZd6lmltaivbOgTkLhaNkD9I0XbpaTlylgpRoagOsiUY2aI0cy5G58QlWc8Bla0VSkoZX+5GemFblRr0fNKjaM0c2ZZGXbrknqLlbW0rxt3TzJUEatd5sMnlR5czgFKCnUFXbfgcmi7OVS7+zV1SNZW+BO/hHFTFAzKIkp2ZKAh/mIk4AeKqOJ4DkFnQLnlpGjMRN/mXSs0BYBdtS86cAypLYJCAYj7wHIUfZKlK7iBzp0WDl7IgYwAyzXBj23OATUWi5KVm8q+uQ3T3qwp0AHixS/gzBVE8IiqRHZlm8JJZLBoAcqB2K1+fAzLryHkygltxriQMmy6GdVNNbroeAdtMnQFB+MOsPlDukmVai/Ax6JWSLKyChQIVkoK0VgBIXgGgqpggxhAYENUMppA0AeLgBjiimVdSM4yTNagYB0DvDJCa25sspmmViykoDWg67QGgBQaomwYAkplBlW1wEN3IShUVAUjmlZRDwJg4N7+YwcrKizXUVRH51l2qxuV0kJsAY9/ypKup3YarXfJmBhWzAMiRAdIhkNOYV5IuZ2q3V049TtaQ1BqGKeuDmLQDdeNxSlZOjzNrUNcrJ4Ao6XvYNCtqrhxmW6M+6e8G2PJZkaVYRBRPgCrX0I0ORRgtCtCMP3TJfAjUHCCGLFhDT9EdK9SJSqin2DD6R9UEZq5KyajOXrupyuAl1b1Yv90rHABKCkwBRmvIctHN2BI2WqXsOCarpaX4bpzT4OxVB8EsMuxEBkWkiKwVczXhZXG13ZLbQ05TVNYUOSgiP1ZUiTRrmLxM3U/WYbImrUNnqkh5Wde5ZV7UewPc2PYcEEx+PFbEOE+o+wqBC3BQRPdydk4udcGomDofAPJWNnFyObdJzRD4zhQA2RLgubQ/I7G+GCPBBHHQBfXlthoxDsYkS1LV1E6yvD7MJgsaWbJxTsblkrxkzZFbM+YVqNolzzwDp1Y1rNRZ/1yUEVJhHQpiksXHuO7NDlypzDsOk1FHaXzzrs7ELNU9FYNRJzruBlPpAxkqNg55pZLfKDZCMPmAl6bRlzS/Fb671N6Fa8agQuVvxlRrkXXyyCXmmiTtBVYBs06or67+bVdp5n3+v0o7jv9vXaUZlqtRViYTiynYv8oVMncmflUm5zrENMQVSXGNNfOUSiqX56aQ2fKqmhFM4yPEm5KboFAuqQRZnws2OUoyE4m23aFI9YhDo02azWrCybCr1Gbchmx4SH5FumM2JRadMl/pz1YysYbUlmY/hGOpozx7Zm/SMnIygCErVRBerAWD7nkaTNZDk3vxJ8LLq3u0yKWtoW0JEpvvAqNu6ctsSyPo3rOyDOEo7XR3WzfSrqhF15O+raDWUJfyO2S1F7eNfK9cZAf3bOmjYsFFp2Q9EY+yF7Nyqfeq27NyRnjVT2oWfdWxatqkrnpiq+kcvui6vV3kHUtbyviquQa46ByuZwJYHxwXky+6nysX9Wd/tWrIrqblu+mmclNSqRddt43rSLMLXc/AKsDL+DC7bndbwi8XncMUdotOam1jPLgwqkUPziDn9waqpGKkdr74yMKztSLEyC8aApMxgpgisq9acwHmdx/6Mw7ipfllifp2JXFRf367ogEk+KIWJ9CDPENYvR33AHSZHppM2WYGuNMMNJqshRUukwZ9GzPbw6h8IUX3zGHJ4aSWmZp2H3/rNTkf3zjrSfLmHeP5KytZfYFmppju9Rl39gQvKQ/jKz9f+kFnyeBl61o1bdVeyqpqep697J+tg/lRV0br4CzMy16Maq6pvLS35vn63Mu289k+bc5LdZ945lLdFDfHVxqvbne+97PK6/H4x9dvON89fvjw8gno8e/8zSd+evleNP34Nw==);lineShape=1;" vertex="1" parent="50">
                    <mxGeometry x="27.817968942703494" y="-0.004282403751104447" width="4.370042487683018" height="10.143662944899276" as="geometry"/>
                </mxCell>
                <mxCell id="53" value="a-&amp;gt;2&lt;br&gt;b-&amp;gt;1&lt;br&gt;q:b" style="text;html=1;align=center;verticalAlign=middle;resizable=0;points=[];autosize=1;strokeColor=none;fillColor=none;fontSize=6;" vertex="1" parent="50">
                    <mxGeometry y="20" width="40" height="40" as="geometry"/>
                </mxCell>
                <mxCell id="54" value="q.front() wale ka freq=1 he to &lt;br&gt;jod do isko str me" style="text;html=1;align=center;verticalAlign=middle;resizable=0;points=[];autosize=1;strokeColor=none;fillColor=none;fontSize=6;" vertex="1" parent="50">
                    <mxGeometry y="45" width="100" height="30" as="geometry"/>
                </mxCell>
                <mxCell id="55" value="" style="shape=stencil(rVvZjhs3EPyafSV4H8+O8x8GvI4XcbzG2rn+PmQ21EpVo2oJyJuPKg2H092sPviQ3n3//OHb40P033+8PP/6+OfTxx+fH9JPDzE+ff38+PL0Y/7pIb1/SO8+Pb88/vLy/PvXj69///ZhIdeffnv+Y/3CX6+8XtxoixX936//El0L//7Dz6/4L09fz/HJxXKBTy7X6/g2XPYX+OzyEPi6f27ji1t/u4pPzl+uvzov8HW4NADfi8AXV9MFvrnmBT7ux2983w88xJfuWge8Wk+h7zWczwKfXA3w+0N8rxIY38R68nC9Ab6I/cndxQz4mAS+uuph/4daT3YjAr6K983JhQ741AQ+uIy/H8V60nClIF7sT2r8vv8t8BhfDvBi/WnaQ0a82J8UXGt34Kc5jnEPfroHrV/hpz3g95L4gvZm4NM2r9v2c4VLjA/q+8bgCu5PVOvxrqC9JeHvYdobrieLeBimu+L3VfE5NN7/IvYnzPCK37eq9c/4ht9LxduJ97geFa9C3sfJGV69b3IJ8V2cjyG6hPtfRXwLB/Ekq9+f9kD2LPZ/4PE1v4d43b43+w1exWoaBoe6d+v4cHQ9A9yLvSnoisU1dXS5gPCqIrlLKDSqCuSudIQrv92n+Blcmdk2wje4OqWDixhE1KEY0CanlWblhISv9/3+inL3/P6yG2X0hNciKaDPpqCDIOGz8yro7NWe8HVH9RvxQwdxPBNzlE5O5pCnL8j1xEtbnqosqCDl4qWbT5UY5feK4Fp5f8Eb8TMICtETMAepXh8qhE934qs+5Ag/LHuGMyvtLOAKHmP+PIRkeGig4YOM+nFb+wlfpKid0ePSH/u0H7GfiXKi4ZrAZ8zphndN+G92vSN+qKTLjcv3HUEmIc35gniV9HbMMSdeiZhxsJ6u7C2gyJsE9cKBsvYRt266KqsCEtQnZp03CUnF6I5GPQlVfOSphCFKTMIQXhZPRn8iJK3NE9r1JKhkdhoeiNVJ6IpQyTKmrSvPJIU1CUW55kBfmwTl+8lv0z8Ris44p+0XJChvSHFLnzOC0ugzRx3gz1MoqicUPNAmISlCxaxtEpScS/3gCSpvyJ4cSBeactgh/ZwgvkNOOxE5J6glFXLRugPPMaEdPEESBsrYRRAuWgLmGxYhUdQwCIWihkGoFDUMQqeoYRDGgXkrQuVwbxDSlnO3EvJ2yFsJ9c6Xrn0r2BsJzVMgMwjzCLxrSVN09fueUCiQGYSGxRuLMDATMQhT2IX7CPEgzEhCxgKmRai7wHYroW0xeCth7OzjRsKUg/WuMDMOg7GIrUuKkE93oWamUBhkS0rjrmOcHEjVZuYhW2lblZpZZyY5UNYEfmmV94yxa4tnhKheeuyazPkTNIHPOLlLYxvCiXBS+1cJHQlVFQu8x/RqdJk+r0dUJKii43prWNOQCff8b4z3Yyuiqx/CI0FVqNanTkRQHjRIYc230ksKGQmqajBOnbIzgirzzF1HH+2yjnRAaDIfOFhSsxwCX7rKVPpgW6tsSK5NpCeo5PjANKpsaRwYX5U9hwPzNqIxO5BVVT/yUW/4aEeCSl8PAs3QlXsOZcMKZRgsh5TrHI7P9uH/YvAZMXaH9tZTaOiTlM+5ce9Jamwsn9VDn6SsBoY+SVlvGAGcFY0uOR5oJoPAqswgsO4zCKwsDQJrV4PA6lgTDvS3QWCFbxA4hzAInKUYBM6DDAJnWppwkMsZBM4WDQLnowaBM16DwDm1Jhxk7QaB6wIGgSsPBoFrGwaBqycGgeszmnBQATIIXGMyCFzFMghcJzMIh8FYEVg8jN2Ru1pNpCdE1UCpB1FDdewSjb0M3TJdNdeEhKLKwJHURpe7tOrGAQlKYiWPo1lDz4Ks0baGBNVnXdV1LiSoaZ+6exrnObXQGqtDQE9QX3r1IMCW9ChAZGvVowarj5KRkFV3dhpCQIJsL1ecaZySS7anuNuUdQOM+1l52+8xgcN90fqeWnJFOhy3/E49ieNDlxK/InOgQpq1yBZ2pihZpO+knWuf4WWfiU7DrD0HRyCWqJYtdWzQRCm5A7Wwu2yRexznmWpUDRd5bNl3Lx3fo4E2nXZ71C9Lxonv63fbcOONkYP5+zDYpUcaGK9HJng9eiSD8MbIh8cxP2OkxOMIgTGy4neDceONkRiPIwHGyI1HfzdGevyejNt4Y2SI8XokiTS/MfLEeD1SRXhjZIvapcZIGOPTHi68DR+GHHFhfJb3IkgCBi/jOfuXYT4NtnPH3yvREIZ0g5YEOKwYpO8mHGHWv54xdAZZsTz50RtclYErOlaQO1NR5kbjmAZxFWXU7Jj9RGn0A+Vn0jM2flcY3/ByrDFgtS5JG16zyx3wcgqVZqOzC+r3afY667FDmu3OegySZsezLKbzzFKWxsCz79kccWqAl0KbZvfzVt7XlHzB/VQxn+8eZD3DTHcbsiys8t0Jran4boaBp7sfBp7ulhh4urui8Xw3xsDT3RsDT3d78n7gMZ7uDmU5VrruJoHokd2qdfcJ7UGONCWsOescYd3dwqF51Uhad8MS4FXOsu6egSiUR0umJLDuU/tatYwuW6j4wHfzqhybLwXbWlW2nNbdQsSr+FMD2r8uPdSC8UR/r5WiYHxQXZF1txNErdyfdXcUVZI679pJUp9pB5Xjn8ZHN95Lzbnu1kbAK43dK4pOL2sUCz8Ar87f1aFpgI9KzVQcDfUyB1/4DngVr3rFokCQQ8lHeNXVXXgQ5XLIoVcsy0Z5t3bhIQnZD7y6/xnwxn56XI/S5Xff5Tbx8w9vF8c/PX358nrv/Pz/8aL5/KfXS+rp/T8=);lineShape=1;fontSize=6;" vertex="1" parent="1">
                    <mxGeometry x="128.3903661303053" y="41.83687506392917" width="22.681080583588816" height="6.128208973690702" as="geometry"/>
                </mxCell>
                <mxCell id="57" value="q: a a" style="text;html=1;align=center;verticalAlign=middle;resizable=0;points=[];autosize=1;strokeColor=none;fillColor=none;fontSize=6;" vertex="1" parent="1">
                    <mxGeometry x="110.6" y="80" width="40" height="20" as="geometry"/>
                </mxCell>
                <mxCell id="60" value="" style="shape=stencil(7VrLchw3DPyavbJIgs+z4/yHqyxHW1Eklyzn8fcBs8XJsLHbo80pB9/0QM8MiQbQAHmSD98eP319OEX/7e315deHP86f3x5P8tMpxvPz48Pr+U1/OsnHk3z48vL68Mvry/fnz5ffv34aluOn315+H0/484KLwfU+UNH/dfmLd6n984efL/ZP52ewl8VenA/Uvq3PL04O7Mti31w7sE+LfQiHgLgCsvOVA8IKaC4fvMEvgBidjwQQXVz3NGaXOgW0vAKa654AxNW6ei26UAhA9wTcrJ/EFl1cWv0gzVW26ObC+oa0bcNVgHgX1kWn7BoDRCerp1N3iXhakpN1DZmTW4qLK7mzsps4TvfEr9TI3WUSbtKdtDV8ostk0cm7sm5ryS6QN6TgMgRopeRLhq2Fb6sC6hpANbjA3iAzXDaAPoLQWwER3pBc4ABZs0xVenNAXh1XiyscAH6o9WgNdSVf1QDKFACZr3ZXmafF9XVbm5+Z6iZgpUYLNOJSch6StzqOeTphEmhCs8YArImspcmuWwCgRsuHAPikcvRJcc1LrU5X3gSsMd0ap8ZG5g3QXWGfFJHePdAkoGkGCooC2CeJUqMhIBG2SnCyrqF7XqcbZg0FeFbjigsBd8kTP2hRzAn9QAHedaB3pYVdhYIAWwtdg0qRAlzi4iRE12HRShb2SX7Kr13ECXFcRTGjIc0SX57ycZczOnm+VpOI9sK2yHw/LyYelY/ae6J8PIaOJslOeKqk7GhfSY70qADUPhPSqX1De+Yv/a+gfSAM2r52Z880T3ARKqfmDpJajP4fVYpp26mH9vZkfwTzyoF9wv0/qpqmjut6yX4WFJ2DDyQgt6ft4ssT/46IB0Ko+mEBU0wEJJeZ9t9qxT5rMZflyYBdXqTKXEUqZN4+9dV1gObFlUVabtiiVQYnKGhx9n23aiz4uSf+hubS6uie6RpyROZ1lZAk0nJ2cXVcr7TG5oax3xvlUgkovxSQyS5pL5EzAgqhRvVzE3eASMJHhTsqkeoCiWeV1ZAgdVuFBLTGr9zluFGQAMADqG1d4waQWdevA/R54OlIt1VVwRW9RhatAQmtbedlbShMyBra5ZGYHuFitA5NfAkbHgUwP6ibkgEIe4PNxWWqjeuAemUNLAkMMnsDINToHamhANZ4KqAYANNfCuhmlxoJoAEw2ZulewVUjwDhbwimQ8okHrrVzbx5HonRKPNK0oxSI4e7ANn4obpCIk7pjYPMSnNrN9Onsa1s0ck0PJVK2wEwhZ0NAEaeywjIfJdCR4BwP8CoZwQQo0aZ3cR7Q7TOyegewBKZNp7FrIHT2+Yl6mmr+Qod9QRvu4ZKVfp4RUTAQWK6EyDYOGhFYcJ+FBwo1JHye2hCmGLInJzcKnKwryOm2BsM+5TA9A0yde1ebLAyGmaztpMz7JNqwwmA8pH1tzUb4dpow10jdnDqexbUpWFLNkoGiaAxcV7fsCPwLSGKeoZ3WbmZhqDTqbWKaeiCxjYx9R2vSF3WSKeOhwFDTrBpaTYRVOiwJ5mzuqGh2Fivmhma0FMciVi0eqBtU6yGrn72FNcB0Uy4Gj1wDHUu8Z16Jsgc4u1maOxQphmluxXWGxMBFFjxYMKVBe3ZmPHHhOvHhOv/POHK87Rvv59MgeHR2eAb47/ZUCV0YYBkIibSiNecgspZaKoOVrElfn4ejerMdIyhu1qMEKaAZprbStOWGP3V+HRIxIzy+S0DLTfdHNmwNUgznSQ/CRsAwUXT2NnOUN85lRgAWDQ/L5SG10MOTiQHAD6Jn3kqAM9t+anqANx1bivdnNvyk2EFhLvOnhUQ7zrdHhcfAMBHAAqAEUDl41XpOHSr/IqLAmBqXflZ2wDAJ0VaOccnrdSogTZhw3HrGkqnkxWlBvSqpfILKBWTgKr7yMhX0NMlzgJzHWAGJbkfnT1De5F5vy0B7wBk4bm14xhDxT0busWKYz0V953Vh4TJeJzZ88PquAJGHiGLthfp5OBSmceLQBLptDQYeo9baKxOd7xUplWPOW5ctFs/6eAmXTCt6sFdvfHvNYAObgMOwBqiB/cNBwBK1qH9WhP5hEHtIe/xO2vDfn0+v/Bpn7/1D7fsYVDq6UAvmHLoqbJSEsEQc+sfbtln/H7PpV43z2eh72fReLc9jJD494x2JN6xXrWHWy18P9W+4gVg5q9xARifz/jwXy4Yc3v94d/bzF/OT0+Xy9D7/+PtZ/3T5ea0fPwb);lineShape=1;fontSize=6;" vertex="1" parent="1">
                    <mxGeometry x="131.5790527399185" y="85.39142435565381" width="4.045668541596173" height="15.102943680917546" as="geometry"/>
                </mxCell>
                <mxCell id="61" value="q: a" style="text;html=1;align=center;verticalAlign=middle;resizable=0;points=[];autosize=1;strokeColor=none;fillColor=none;fontSize=6;" vertex="1" parent="1">
                    <mxGeometry x="116.25" y="100" width="30" height="20" as="geometry"/>
                </mxCell>
                <mxCell id="62" value="" style="shape=stencil(lVpLch03DDzN27JIgt+149zDVZYjVRTJJSuJffuAecXRsDHTT9rJMlskQKDRAOcin37cf/l+d4n+x+vL8593/z58fb2/yG+XGB+e7u9eHl71p4t8vsinb88vd3+8PP/99PX67+9fxsrx01/P/4y/8POKi9lJGajof11/413x///i9+v6x4endX33y/rkYiPrC/795lKg64ss60NwUimgxxWQ5m+OAdVFADTXOgXkFRDFeb5DySugulAooIYFIMGFxAGrlyQ7/zGAGs0B4NYUp1XHgOZCWwGF37QGQl0A2XOjm6vrDlmm344B3fm+AvTuWXD3eeIJKN5lFt0d3VrEFQIQ7/waGqVQtyoA3Fr6zKgzQEwLoAbX+A5x3aEmF4iXFCCr0bXMPc8AaY2lugXLGQAyrnbXuQ11vekWXCEpOvJrvYcmLpBYUkBe3dqSy0IAcTpxA2TXmNERY6lVJ8wGcQJGa4YwQHJ+5eLu+U0nPFIPLjEbMgZfj7NenAGAKntywgBlUu8G0D9B2HsAwGitGCxak2tgtLqVVCANjb6yRu8ucqqEmqg7UF4qrsEOlVNlxuAbXmI7yDzxBhCacTFg8OlNB+Kl0JEENPhYfQjK1avRI7yJ0cFcnCYQPVI0CZRnwB8COmof5YBE1leX4O8LTx+XYX2kyWCUjK5PxODusiE9dh51UCxoMKPVoHEn6NFOqpVKrwCXXGecnMUdEndzndzB0KdASRp3LLKr86su6VuCn4mADOksNDuVMBpkp5IeKz4yk3eXzsJJrwKgULknffpkxzBMW6kalGQA5EhJszMiILIdmvMNbfDk4oZ87OilSNIha3h3vAeWz1nroWHJTBI0Gw5TlszE6NzNDoGmdIlTI+zDmxyppFn9tgTqtMEqFXW6Zpww1lNBaXmYhEYVVKCDNUi0qt6EaB28xI7UUWYo8zFmVSKFNlQFJSMyPTFytzbSDNDQS5ULe73Xtt7DUNGsWpUZCBuAs0Y3rbQCWIpqBgPzKSAQ9u7W6ExltwLQ6EylUjct3DCa1cSOZKyAwo6kKqAjgM0PBgBsKLT96aarfAv4M4B4BBRmdDvYobFYMmQ8AMzoau6hzKs8Cz5o4RRQmdHlwOjMAPngHhgJKKBlBHgWGnlq5l1oUEFZUHYrgCq4Yi4uT412dg9Qp0fGEW4dN20SiDWJCigmRdm066072qcoz+liMi4zmulH90CiNXjvvAkmz3O0mQyi9K3EVBDAWrKPAwS1g1aUyHI0zPZoV7NY9GnNgoqiVZHJylEVQd4LrVlad2HyM8YsTAr0qdj22oHExrgmKNSVeknVCdyDuoEVCNU/cA9tqzHHCqsZ4eopuZZ8MJehAMG6O+YyDODNDmkOU4+Fq6nsnbNAzig2hrxnO2yT1V0DwcbwOcxrem+LUo2W7tOqsyYIZOWOSI77LFN4O48NydjvDknEZghhDqt2VgsftuIOhXYQsU1h+85uNBbTviY6MNaePdgxItshODFtU2aE36ZO3Y9CyVW/PSrtp1HESyFgv9u2UnxMfSgrW6GF2sw1lfhYOpjqoMzK2mlTEccwitCeR4+OBoicJ6F80/XMP9V1aBIDDdNg29BIszlEM94T2jqEPKdnO5fSCWUzd1bokcZjrGml2WNOFDOA6/wFK09y2GUO6+5jNXNcoZR3MB7jzboyWIQd+BBRATjir3TKMh5zKu7A6uc4krGBKVAlVaxuQmfR48nLlnTGkX2OPd871+zIkRoa9M24mUe1SoWPAiLoyUJJNVZssMYchz326wFgeCUzWE6j1bAGey5SAMjDG0+Pdsh/43Ez2qEJfz4dANiBP9AeADSW+PcHEHzjkZnbAF4qhT/FV5wfqCRlnbGWt7p6qXjKGgpIa2iM4Stza8GClYUOHJQqoaJnz286YzOTtkOeAYBmhsLkO8Bbxa3POjJ+fyCZqoCY8b317en8TLv11Ybx8QuzwTwMjM9rWLSmOXPfVPfNJyDoc4eaYzQj04kbIPBXKcEEavRhLUYUe4kOD3S9/UqLsVjEqu5pF63rE66nij7izMfzF++I5fDGpz6mX/U8JGSKnN16RkeCjyC8bRuPiB3X84gr5vzMnwk/IfD0xSRmbJA81eaDWPD8VCt8/KvAG+v1h7dPEL89PD5ev2Dc/z9+sqi/un7uKJ//Aw==);lineShape=1;fontSize=6;" vertex="1" parent="1">
                    <mxGeometry x="133.45900687568135" y="106.31408407496784" width="4.8306004204148865" height="11.183550850669207" as="geometry"/>
                </mxCell>
                <mxCell id="63" value="q:&amp;nbsp;" style="text;html=1;align=center;verticalAlign=middle;resizable=0;points=[];autosize=1;strokeColor=none;fillColor=none;fontSize=6;" vertex="1" parent="1">
                    <mxGeometry x="116.25" y="117.5" width="30" height="20" as="geometry"/>
                </mxCell>
                <mxCell id="64" value="" style="group" vertex="1" connectable="0" parent="1">
                    <mxGeometry x="330" width="100" height="75" as="geometry"/>
                </mxCell>
                <mxCell id="65" value="&amp;nbsp; &amp;nbsp;aabccb" style="text;html=1;align=center;verticalAlign=middle;resizable=0;points=[];autosize=1;strokeColor=none;fillColor=none;" vertex="1" parent="64">
                    <mxGeometry x="-5" width="70" height="30" as="geometry"/>
                </mxCell>
                <mxCell id="66" value="" style="shape=stencil(7VvbjhU3EPyafbV8vzyT5D+QgLAKYdFCbn+fclY+jKvn1MBbpOQNzrrGY7u7urrd85BefX7/+tPbh+g/f3l++uXtH49vvrx/SD88xPj48f3b58cv+NdD+vEhvXr39Pz25+en3z6+efn/p9dz5PzXr0+/zyf8+YJr3uU8UdH/9fKLdyX+88NPL+M/PH48jK/D9baND+uHe+PD2MYnV4MY313bxxfn1fO7S2UbX92oYnzj5+MFsxyfwr7e4MoQgOr6/kIh6x2tLu5vFJobaobiut8AOIOq9qjwHmFTsxeAzJs0d6lIQOj7Kce1DeeA5ErdAVVva3QjboDsXUwSQNuaYXkKEFzbLTtXV9UaAi86D1fUOfj155ttx3Uy9wB+36UCbxCAMlzdTaPA3sWiAaBdwpxJA3zaAVESQOlsrTDHKBgAgLJv6/RB4dIAZAJgVfqViPNaWKu6C9gX3aI86QnYT7olNy4WTa9UXNCAuvNSA48In56AfZdac1HZEph497gGru0aQLt0M8dvnKF7Ny7WsFtrj1drqLsD9SSp0tpSL8vL7wHizq29rlXdA5ADdTxCAZrru2n0i21tbEvDuy64FQC/L3pE59UM1eXAABWyQFvkDyO5rsw7M/ONvOY8BwSODwAoFwVXkwMBEATN5LZC4GENishyZjIe0EpqBqyBdslLIksgYzKNG1OdAwqLE1ir8mmEcWK+jl0SM0QTH3qQPg0pUon5hmvCpyNiJnGrjnHhFg0O3KqML4BJ6ZXA3kIkhsQCC/HBi20NnrUGdHgSM+BYd3eYOlnJXN4jxNAoHBS+YoL0EKRk1NiUjGpLOfhAACqWxP5kHu/F8/1KEg6qRDmCX/x2GJ/08814FRY8MyrGK+HmVwi4jQ/S4jwTMMYrve05Dn5Vu3fGj2zGKx9jj5njpT2U9H3P72a9Tex/5PBxsT+Ro/jcfzk+kWy+zXjPv2g8Yod4/7pC0cG/svBfZIxkb2XFknsExLofJCpoGhQXyAOGZCCQ6AknKsDgM246cY6JEwUEAi82CbsUCTCk1SW/RPtRbwqzTtmlfZd6lmltaivbOgTkLhaNkD9I0XbpaTlylgpRoagOsiUY2aI0cy5G58QlWc8Bla0VSkoZX+5GemFblRr0fNKjaM0c2ZZGXbrknqLlbW0rxt3TzJUEatd5sMnlR5czgFKCnUFXbfgcmi7OVS7+zV1SNZW+BO/hHFTFAzKIkp2ZKAh/mIk4AeKqOJ4DkFnQLnlpGjMRN/mXSs0BYBdtS86cAypLYJCAYj7wHIUfZKlK7iBzp0WDl7IgYwAyzXBj23OATUWi5KVm8q+uQ3T3qwp0AHixS/gzBVE8IiqRHZlm8JJZLBoAcqB2K1+fAzLryHkygltxriQMmy6GdVNNbroeAdtMnQFB+MOsPlDukmVai/Ax6JWSLKyChQIVkoK0VgBIXgGgqpggxhAYENUMppA0AeLgBjiimVdSM4yTNagYB0DvDJCa25sspmmViykoDWg67QGgBQaomwYAkplBlW1wEN3IShUVAUjmlZRDwJg4N7+YwcrKizXUVRH51l2qxuV0kJsAY9/ypKup3YarXfJmBhWzAMiRAdIhkNOYV5IuZ2q3V049TtaQ1BqGKeuDmLQDdeNxSlZOjzNrUNcrJ4Ao6XvYNCtqrhxmW6M+6e8G2PJZkaVYRBRPgCrX0I0ORRgtCtCMP3TJfAjUHCCGLFhDT9EdK9SJSqin2DD6R9UEZq5KyajOXrupyuAl1b1Yv90rHABKCkwBRmvIctHN2BI2WqXsOCarpaX4bpzT4OxVB8EsMuxEBkWkiKwVczXhZXG13ZLbQ05TVNYUOSgiP1ZUiTRrmLxM3U/WYbImrUNnqkh5Wde5ZV7UewPc2PYcEEx+PFbEOE+o+wqBC3BQRPdydk4udcGomDofAPJWNnFyObdJzRD4zhQA2RLgubQ/I7G+GCPBBHHQBfXlthoxDsYkS1LV1E6yvD7MJgsaWbJxTsblkrxkzZFbM+YVqNolzzwDp1Y1rNRZ/1yUEVJhHQpiksXHuO7NDlypzDsOk1FHaXzzrs7ELNU9FYNRJzruBlPpAxkqNg55pZLfKDZCMPmAl6bRlzS/Fb671N6Fa8agQuVvxlRrkXXyyCXmmiTtBVYBs06or67+bVdp5n3+v0o7jv9vXaUZlqtRViYTiynYv8oVMncmflUm5zrENMQVSXGNNfOUSiqX56aQ2fKqmhFM4yPEm5KboFAuqQRZnws2OUoyE4m23aFI9YhDo02azWrCybCr1Gbchmx4SH5FumM2JRadMl/pz1YysYbUlmY/hGOpozx7Zm/SMnIygCErVRBerAWD7nkaTNZDk3vxJ8LLq3u0yKWtoW0JEpvvAqNu6ctsSyPo3rOyDOEo7XR3WzfSrqhF15O+raDWUJfyO2S1F7eNfK9cZAf3bOmjYsFFp2Q9EY+yF7Nyqfeq27NyRnjVT2oWfdWxatqkrnpiq+kcvui6vV3kHUtbyviquQa46ByuZwJYHxwXky+6nysX9Wd/tWrIrqblu+mmclNSqRddt43rSLMLXc/AKsDL+DC7bndbwi8XncMUdotOam1jPLgwqkUPziDn9waqpGKkdr74yMKztSLEyC8aApMxgpgisq9acwHmdx/6Mw7ipfllifp2JXFRf367ogEk+KIWJ9CDPENYvR33AHSZHppM2WYGuNMMNJqshRUukwZ9GzPbw6h8IUX3zGHJ4aSWmZp2H3/rNTkf3zjrSfLmHeP5KytZfYFmppju9Rl39gQvKQ/jKz9f+kFnyeBl61o1bdVeyqpqep697J+tg/lRV0br4CzMy16Maq6pvLS35vn63Mu289k+bc5LdZ945lLdFDfHVxqvbne+97PK6/H4x9dvON89fvjw8gno8e/8zSd+evleNP34Nw==);lineShape=1;" vertex="1" parent="64">
                    <mxGeometry x="35.6279689427035" y="-0.004282403751104447" width="4.370042487683018" height="10.143662944899276" as="geometry"/>
                </mxCell>
                <mxCell id="67" value="a-&amp;gt;2&lt;br&gt;b-&amp;gt;1&lt;br&gt;c-&amp;gt;1&lt;br&gt;q:b c" style="text;html=1;align=center;verticalAlign=middle;resizable=0;points=[];autosize=1;strokeColor=none;fillColor=none;fontSize=6;" vertex="1" parent="64">
                    <mxGeometry y="17.5" width="40" height="40" as="geometry"/>
                </mxCell>
                <mxCell id="68" value="q.front() wale ka freq=1 he to &lt;br&gt;jod do isko str me" style="text;html=1;align=center;verticalAlign=middle;resizable=0;points=[];autosize=1;strokeColor=none;fillColor=none;fontSize=6;" vertex="1" parent="64">
                    <mxGeometry y="45" width="100" height="30" as="geometry"/>
                </mxCell>
                <mxCell id="69" value="s=a" style="text;html=1;align=center;verticalAlign=middle;resizable=0;points=[];autosize=1;strokeColor=none;fillColor=none;fontSize=6;" vertex="1" parent="1">
                    <mxGeometry x="5" y="80" width="30" height="20" as="geometry"/>
                </mxCell>
                <mxCell id="70" value="&lt;span style=&quot;color: rgba(0, 0, 0, 0); font-family: monospace; font-size: 0px; text-align: start;&quot;&gt;s&lt;/span&gt;" style="text;html=1;align=center;verticalAlign=middle;resizable=0;points=[];autosize=1;strokeColor=none;fillColor=none;fontSize=6;" vertex="1" parent="1">
                    <mxGeometry x="120" y="140" width="20" height="20" as="geometry"/>
                </mxCell>
                <mxCell id="71" value="s=a#" style="text;html=1;align=center;verticalAlign=middle;resizable=0;points=[];autosize=1;strokeColor=none;fillColor=none;fontSize=6;" vertex="1" parent="1">
                    <mxGeometry x="111.25" y="130" width="40" height="20" as="geometry"/>
                </mxCell>
                <mxCell id="72" value="s=a#b" style="text;html=1;align=center;verticalAlign=middle;resizable=0;points=[];autosize=1;strokeColor=none;fillColor=none;fontSize=6;" vertex="1" parent="1">
                    <mxGeometry x="232.64" y="70" width="40" height="20" as="geometry"/>
                </mxCell>
                <mxCell id="73" value="s=a#bc" style="text;html=1;align=center;verticalAlign=middle;resizable=0;points=[];autosize=1;strokeColor=none;fillColor=none;fontSize=6;" vertex="1" parent="1">
                    <mxGeometry x="340" y="70" width="40" height="20" as="geometry"/>
                </mxCell>
            </root>
        </mxGraphModel>
    </diagram>
</mxfile>